<mxfile host="app.diagrams.net" modified="2023-02-02T07:29:57.476Z" agent="5.0 (Macintosh; Intel Mac OS X 10_15_7) AppleWebKit/537.36 (KHTML, like Gecko) Chrome/109.0.0.0 Safari/537.36" etag="Ao9ifRnHP2YlD-ehR6UL" version="20.8.15" type="github">
  <diagram id="H3SxZ43efbbaYmBA8pNz" name="第 1 页">
    <mxGraphModel dx="1062" dy="547" grid="1" gridSize="10" guides="1" tooltips="1" connect="1" arrows="1" fold="1" page="1" pageScale="1" pageWidth="827" pageHeight="1169" math="0" shadow="0">
      <root>
        <mxCell id="0" />
        <mxCell id="1" parent="0" />
        <mxCell id="K7jrmlSnKd5e08-iuxen-297" value="" style="rounded=0;whiteSpace=wrap;html=1;fontFamily=Georgia;fontSize=22;strokeColor=#000000;fillColor=none;dashed=1;" parent="1" vertex="1">
          <mxGeometry x="612.08" y="580" width="267.92" height="210" as="geometry" />
        </mxCell>
        <mxCell id="K7jrmlSnKd5e08-iuxen-289" value="" style="group" parent="1" vertex="1" connectable="0">
          <mxGeometry x="692.08" y="589.1800000000001" width="202.70999999999992" height="300.00000000000006" as="geometry" />
        </mxCell>
        <mxCell id="K7jrmlSnKd5e08-iuxen-296" value="" style="endArrow=classic;html=1;rounded=0;fontSize=11;exitX=0.5;exitY=0;exitDx=0;exitDy=0;entryX=0;entryY=1;entryDx=0;entryDy=0;" parent="K7jrmlSnKd5e08-iuxen-289" source="K7jrmlSnKd5e08-iuxen-298" edge="1">
          <mxGeometry width="50" height="50" relative="1" as="geometry">
            <mxPoint x="43.05999999999991" y="25" as="sourcePoint" />
            <mxPoint x="42.70999999999992" y="-30.190000000000055" as="targetPoint" />
          </mxGeometry>
        </mxCell>
        <mxCell id="K7jrmlSnKd5e08-iuxen-372" value="&lt;font face=&quot;Helvetica&quot; color=&quot;#ff8000&quot;&gt;&lt;span style=&quot;font-size: 12px;&quot;&gt;用户实时点击短序列 Target-Attention&lt;/span&gt;&lt;/font&gt;" style="text;html=1;strokeColor=none;fillColor=none;align=center;verticalAlign=middle;whiteSpace=wrap;rounded=0;dashed=1;fontFamily=Georgia;fontSize=22;" parent="K7jrmlSnKd5e08-iuxen-289" vertex="1">
          <mxGeometry x="-72.08000000000015" y="200.82000000000016" width="256" height="30" as="geometry" />
        </mxCell>
        <mxCell id="K7jrmlSnKd5e08-iuxen-1" value="All Features Embedding" style="rounded=0;whiteSpace=wrap;html=1;fillColor=#fff2cc;strokeColor=#d6b656;gradientColor=#ffd966;" parent="1" vertex="1">
          <mxGeometry x="440" y="540" width="770" height="20" as="geometry" />
        </mxCell>
        <mxCell id="K7jrmlSnKd5e08-iuxen-2" value="" style="group" parent="1" vertex="1" connectable="0">
          <mxGeometry x="1051" y="560" width="135" height="200" as="geometry" />
        </mxCell>
        <mxCell id="K7jrmlSnKd5e08-iuxen-3" value="" style="group" parent="K7jrmlSnKd5e08-iuxen-2" vertex="1" connectable="0">
          <mxGeometry x="5" width="50" height="165" as="geometry" />
        </mxCell>
        <mxCell id="K7jrmlSnKd5e08-iuxen-4" value="" style="group" parent="K7jrmlSnKd5e08-iuxen-3" vertex="1" connectable="0">
          <mxGeometry y="25" width="50" height="65" as="geometry" />
        </mxCell>
        <mxCell id="K7jrmlSnKd5e08-iuxen-5" value="" style="group" parent="K7jrmlSnKd5e08-iuxen-4" vertex="1" connectable="0">
          <mxGeometry x="5" width="40" height="10" as="geometry" />
        </mxCell>
        <mxCell id="K7jrmlSnKd5e08-iuxen-6" value="" style="rounded=0;whiteSpace=wrap;html=1;fontSize=22;strokeColor=none;fillColor=#000000;" parent="K7jrmlSnKd5e08-iuxen-5" vertex="1">
          <mxGeometry width="10" height="10" as="geometry" />
        </mxCell>
        <mxCell id="K7jrmlSnKd5e08-iuxen-7" style="edgeStyle=none;rounded=0;orthogonalLoop=1;jettySize=auto;html=1;exitX=1;exitY=1;exitDx=0;exitDy=0;fontSize=22;strokeColor=none;" parent="K7jrmlSnKd5e08-iuxen-5" source="K7jrmlSnKd5e08-iuxen-6" target="K7jrmlSnKd5e08-iuxen-6" edge="1">
          <mxGeometry relative="1" as="geometry" />
        </mxCell>
        <mxCell id="K7jrmlSnKd5e08-iuxen-8" value="" style="rounded=0;whiteSpace=wrap;html=1;fontSize=22;strokeColor=none;fillColor=#BFBFBF;" parent="K7jrmlSnKd5e08-iuxen-5" vertex="1">
          <mxGeometry x="10" width="10" height="10" as="geometry" />
        </mxCell>
        <mxCell id="K7jrmlSnKd5e08-iuxen-9" value="" style="rounded=0;whiteSpace=wrap;html=1;fontSize=22;strokeColor=none;fillColor=#000000;" parent="K7jrmlSnKd5e08-iuxen-5" vertex="1">
          <mxGeometry x="20" width="10" height="10" as="geometry" />
        </mxCell>
        <mxCell id="K7jrmlSnKd5e08-iuxen-10" value="" style="rounded=0;whiteSpace=wrap;html=1;fontSize=22;strokeColor=none;fillColor=#BFBFBF;" parent="K7jrmlSnKd5e08-iuxen-5" vertex="1">
          <mxGeometry x="30" width="10" height="10" as="geometry" />
        </mxCell>
        <mxCell id="K7jrmlSnKd5e08-iuxen-11" value="" style="shape=curlyBracket;whiteSpace=wrap;html=1;rounded=1;flipH=1;fontSize=22;strokeColor=#000000;fillColor=#000000;rotation=-90;size=0.5;" parent="K7jrmlSnKd5e08-iuxen-4" vertex="1">
          <mxGeometry x="15" y="30" width="20" height="50" as="geometry" />
        </mxCell>
        <mxCell id="K7jrmlSnKd5e08-iuxen-12" value="&lt;font style=&quot;font-size: 11px;&quot;&gt;concat&lt;/font&gt;" style="rounded=1;whiteSpace=wrap;html=1;fontSize=11;strokeColor=#000000;fillColor=none;" parent="K7jrmlSnKd5e08-iuxen-4" vertex="1">
          <mxGeometry x="2.5" y="20" width="45" height="20" as="geometry" />
        </mxCell>
        <mxCell id="K7jrmlSnKd5e08-iuxen-13" value="" style="rounded=0;whiteSpace=wrap;html=1;fontSize=22;strokeColor=none;fillColor=#000000;" parent="K7jrmlSnKd5e08-iuxen-3" vertex="1">
          <mxGeometry x="10" y="90" width="10" height="10" as="geometry" />
        </mxCell>
        <mxCell id="K7jrmlSnKd5e08-iuxen-14" value="" style="rounded=0;whiteSpace=wrap;html=1;fontSize=22;strokeColor=none;fillColor=#BFBFBF;" parent="K7jrmlSnKd5e08-iuxen-3" vertex="1">
          <mxGeometry x="10" y="100" width="10" height="10" as="geometry" />
        </mxCell>
        <mxCell id="K7jrmlSnKd5e08-iuxen-15" value="" style="rounded=0;whiteSpace=wrap;html=1;fontSize=22;strokeColor=none;fillColor=#000000;" parent="K7jrmlSnKd5e08-iuxen-3" vertex="1">
          <mxGeometry x="10" y="110" width="10" height="10" as="geometry" />
        </mxCell>
        <mxCell id="K7jrmlSnKd5e08-iuxen-16" value="" style="rounded=0;whiteSpace=wrap;html=1;fontSize=22;strokeColor=none;fillColor=#BFBFBF;" parent="K7jrmlSnKd5e08-iuxen-3" vertex="1">
          <mxGeometry x="10" y="120" width="10" height="10" as="geometry" />
        </mxCell>
        <mxCell id="K7jrmlSnKd5e08-iuxen-17" value="" style="rounded=0;whiteSpace=wrap;html=1;fontSize=22;strokeColor=none;fillColor=#000000;" parent="K7jrmlSnKd5e08-iuxen-3" vertex="1">
          <mxGeometry x="30" y="90" width="10" height="10" as="geometry" />
        </mxCell>
        <mxCell id="K7jrmlSnKd5e08-iuxen-18" value="" style="rounded=0;whiteSpace=wrap;html=1;fontSize=22;strokeColor=none;fillColor=#BFBFBF;" parent="K7jrmlSnKd5e08-iuxen-3" vertex="1">
          <mxGeometry x="30" y="100" width="10" height="10" as="geometry" />
        </mxCell>
        <mxCell id="K7jrmlSnKd5e08-iuxen-19" value="" style="rounded=0;whiteSpace=wrap;html=1;fontSize=22;strokeColor=none;fillColor=#000000;" parent="K7jrmlSnKd5e08-iuxen-3" vertex="1">
          <mxGeometry x="30" y="110" width="10" height="15" as="geometry" />
        </mxCell>
        <mxCell id="K7jrmlSnKd5e08-iuxen-20" value="" style="rounded=0;whiteSpace=wrap;html=1;fontSize=22;strokeColor=none;fillColor=#BFBFBF;" parent="K7jrmlSnKd5e08-iuxen-3" vertex="1">
          <mxGeometry x="30" y="120" width="10" height="10" as="geometry" />
        </mxCell>
        <mxCell id="K7jrmlSnKd5e08-iuxen-21" value="" style="ellipse;whiteSpace=wrap;html=1;aspect=fixed;fontSize=11;strokeColor=#000000;fillColor=none;" parent="K7jrmlSnKd5e08-iuxen-3" vertex="1">
          <mxGeometry x="10" y="155" width="10" height="10" as="geometry" />
        </mxCell>
        <mxCell id="K7jrmlSnKd5e08-iuxen-22" value="" style="ellipse;whiteSpace=wrap;html=1;aspect=fixed;fontSize=11;strokeColor=#000000;fillColor=none;" parent="K7jrmlSnKd5e08-iuxen-3" vertex="1">
          <mxGeometry x="30" y="155" width="10" height="10" as="geometry" />
        </mxCell>
        <mxCell id="K7jrmlSnKd5e08-iuxen-23" value="" style="endArrow=classic;html=1;rounded=0;fontSize=11;exitX=0.5;exitY=0;exitDx=0;exitDy=0;entryX=0.5;entryY=1;entryDx=0;entryDy=0;" parent="K7jrmlSnKd5e08-iuxen-3" source="K7jrmlSnKd5e08-iuxen-21" target="K7jrmlSnKd5e08-iuxen-16" edge="1">
          <mxGeometry width="50" height="50" relative="1" as="geometry">
            <mxPoint x="-20" y="65" as="sourcePoint" />
            <mxPoint x="30" y="15" as="targetPoint" />
          </mxGeometry>
        </mxCell>
        <mxCell id="K7jrmlSnKd5e08-iuxen-24" value="" style="endArrow=classic;html=1;rounded=0;fontSize=11;exitX=0.5;exitY=0;exitDx=0;exitDy=0;entryX=0.5;entryY=1;entryDx=0;entryDy=0;" parent="K7jrmlSnKd5e08-iuxen-3" source="K7jrmlSnKd5e08-iuxen-22" target="K7jrmlSnKd5e08-iuxen-20" edge="1">
          <mxGeometry width="50" height="50" relative="1" as="geometry">
            <mxPoint x="34.81999999999999" y="155" as="sourcePoint" />
            <mxPoint x="34.81999999999999" y="130" as="targetPoint" />
          </mxGeometry>
        </mxCell>
        <mxCell id="K7jrmlSnKd5e08-iuxen-25" value="" style="endArrow=classic;html=1;rounded=0;fontSize=11;exitX=0.5;exitY=0;exitDx=0;exitDy=0;entryX=0.5;entryY=1;entryDx=0;entryDy=0;" parent="K7jrmlSnKd5e08-iuxen-3" edge="1">
          <mxGeometry width="50" height="50" relative="1" as="geometry">
            <mxPoint x="24.84999999999991" y="25" as="sourcePoint" />
            <mxPoint x="24.84999999999991" as="targetPoint" />
          </mxGeometry>
        </mxCell>
        <mxCell id="K7jrmlSnKd5e08-iuxen-26" value="" style="group" parent="K7jrmlSnKd5e08-iuxen-2" vertex="1" connectable="0">
          <mxGeometry x="75" width="50" height="165" as="geometry" />
        </mxCell>
        <mxCell id="K7jrmlSnKd5e08-iuxen-27" value="" style="group" parent="K7jrmlSnKd5e08-iuxen-26" vertex="1" connectable="0">
          <mxGeometry y="25" width="50" height="65" as="geometry" />
        </mxCell>
        <mxCell id="K7jrmlSnKd5e08-iuxen-28" value="" style="group" parent="K7jrmlSnKd5e08-iuxen-27" vertex="1" connectable="0">
          <mxGeometry x="5" width="40" height="10" as="geometry" />
        </mxCell>
        <mxCell id="K7jrmlSnKd5e08-iuxen-29" value="" style="rounded=0;whiteSpace=wrap;html=1;fontSize=22;strokeColor=none;fillColor=#000000;" parent="K7jrmlSnKd5e08-iuxen-28" vertex="1">
          <mxGeometry width="10" height="10" as="geometry" />
        </mxCell>
        <mxCell id="K7jrmlSnKd5e08-iuxen-30" style="edgeStyle=none;rounded=0;orthogonalLoop=1;jettySize=auto;html=1;exitX=1;exitY=1;exitDx=0;exitDy=0;fontSize=22;strokeColor=none;" parent="K7jrmlSnKd5e08-iuxen-28" source="K7jrmlSnKd5e08-iuxen-29" target="K7jrmlSnKd5e08-iuxen-29" edge="1">
          <mxGeometry relative="1" as="geometry" />
        </mxCell>
        <mxCell id="K7jrmlSnKd5e08-iuxen-31" value="" style="rounded=0;whiteSpace=wrap;html=1;fontSize=22;strokeColor=none;fillColor=#BFBFBF;" parent="K7jrmlSnKd5e08-iuxen-28" vertex="1">
          <mxGeometry x="10" width="10" height="10" as="geometry" />
        </mxCell>
        <mxCell id="K7jrmlSnKd5e08-iuxen-32" value="" style="rounded=0;whiteSpace=wrap;html=1;fontSize=22;strokeColor=none;fillColor=#000000;" parent="K7jrmlSnKd5e08-iuxen-28" vertex="1">
          <mxGeometry x="20" width="10" height="10" as="geometry" />
        </mxCell>
        <mxCell id="K7jrmlSnKd5e08-iuxen-33" value="" style="rounded=0;whiteSpace=wrap;html=1;fontSize=22;strokeColor=none;fillColor=#BFBFBF;" parent="K7jrmlSnKd5e08-iuxen-28" vertex="1">
          <mxGeometry x="30" width="10" height="10" as="geometry" />
        </mxCell>
        <mxCell id="K7jrmlSnKd5e08-iuxen-34" value="" style="shape=curlyBracket;whiteSpace=wrap;html=1;rounded=1;flipH=1;fontSize=22;strokeColor=#000000;fillColor=#000000;rotation=-90;size=0.5;" parent="K7jrmlSnKd5e08-iuxen-27" vertex="1">
          <mxGeometry x="15" y="30" width="20" height="50" as="geometry" />
        </mxCell>
        <mxCell id="K7jrmlSnKd5e08-iuxen-35" value="&lt;font style=&quot;font-size: 11px;&quot;&gt;concat&lt;/font&gt;" style="rounded=1;whiteSpace=wrap;html=1;fontSize=11;strokeColor=#000000;fillColor=none;" parent="K7jrmlSnKd5e08-iuxen-27" vertex="1">
          <mxGeometry x="2.5" y="20" width="45" height="20" as="geometry" />
        </mxCell>
        <mxCell id="K7jrmlSnKd5e08-iuxen-36" value="" style="rounded=0;whiteSpace=wrap;html=1;fontSize=22;strokeColor=none;fillColor=#000000;" parent="K7jrmlSnKd5e08-iuxen-26" vertex="1">
          <mxGeometry x="10" y="90" width="10" height="10" as="geometry" />
        </mxCell>
        <mxCell id="K7jrmlSnKd5e08-iuxen-37" value="" style="rounded=0;whiteSpace=wrap;html=1;fontSize=22;strokeColor=none;fillColor=#BFBFBF;" parent="K7jrmlSnKd5e08-iuxen-26" vertex="1">
          <mxGeometry x="10" y="100" width="10" height="10" as="geometry" />
        </mxCell>
        <mxCell id="K7jrmlSnKd5e08-iuxen-38" value="" style="rounded=0;whiteSpace=wrap;html=1;fontSize=22;strokeColor=none;fillColor=#000000;" parent="K7jrmlSnKd5e08-iuxen-26" vertex="1">
          <mxGeometry x="10" y="110" width="10" height="10" as="geometry" />
        </mxCell>
        <mxCell id="K7jrmlSnKd5e08-iuxen-39" value="" style="rounded=0;whiteSpace=wrap;html=1;fontSize=22;strokeColor=none;fillColor=#BFBFBF;" parent="K7jrmlSnKd5e08-iuxen-26" vertex="1">
          <mxGeometry x="10" y="120" width="10" height="10" as="geometry" />
        </mxCell>
        <mxCell id="K7jrmlSnKd5e08-iuxen-40" value="" style="rounded=0;whiteSpace=wrap;html=1;fontSize=22;strokeColor=none;fillColor=#000000;" parent="K7jrmlSnKd5e08-iuxen-26" vertex="1">
          <mxGeometry x="30" y="90" width="10" height="10" as="geometry" />
        </mxCell>
        <mxCell id="K7jrmlSnKd5e08-iuxen-41" value="" style="rounded=0;whiteSpace=wrap;html=1;fontSize=22;strokeColor=none;fillColor=#BFBFBF;" parent="K7jrmlSnKd5e08-iuxen-26" vertex="1">
          <mxGeometry x="30" y="100" width="10" height="10" as="geometry" />
        </mxCell>
        <mxCell id="K7jrmlSnKd5e08-iuxen-42" value="" style="rounded=0;whiteSpace=wrap;html=1;fontSize=22;strokeColor=none;fillColor=#000000;" parent="K7jrmlSnKd5e08-iuxen-26" vertex="1">
          <mxGeometry x="30" y="110" width="10" height="15" as="geometry" />
        </mxCell>
        <mxCell id="K7jrmlSnKd5e08-iuxen-43" value="" style="rounded=0;whiteSpace=wrap;html=1;fontSize=22;strokeColor=none;fillColor=#BFBFBF;" parent="K7jrmlSnKd5e08-iuxen-26" vertex="1">
          <mxGeometry x="30" y="120" width="10" height="10" as="geometry" />
        </mxCell>
        <mxCell id="K7jrmlSnKd5e08-iuxen-44" value="" style="ellipse;whiteSpace=wrap;html=1;aspect=fixed;fontSize=11;strokeColor=#000000;fillColor=none;" parent="K7jrmlSnKd5e08-iuxen-26" vertex="1">
          <mxGeometry x="10" y="155" width="10" height="10" as="geometry" />
        </mxCell>
        <mxCell id="K7jrmlSnKd5e08-iuxen-45" value="" style="ellipse;whiteSpace=wrap;html=1;aspect=fixed;fontSize=11;strokeColor=#000000;fillColor=none;" parent="K7jrmlSnKd5e08-iuxen-26" vertex="1">
          <mxGeometry x="30" y="155" width="10" height="10" as="geometry" />
        </mxCell>
        <mxCell id="K7jrmlSnKd5e08-iuxen-46" value="" style="endArrow=classic;html=1;rounded=0;fontSize=11;exitX=0.5;exitY=0;exitDx=0;exitDy=0;entryX=0.5;entryY=1;entryDx=0;entryDy=0;" parent="K7jrmlSnKd5e08-iuxen-26" source="K7jrmlSnKd5e08-iuxen-44" target="K7jrmlSnKd5e08-iuxen-39" edge="1">
          <mxGeometry width="50" height="50" relative="1" as="geometry">
            <mxPoint x="-20" y="65" as="sourcePoint" />
            <mxPoint x="30" y="15" as="targetPoint" />
          </mxGeometry>
        </mxCell>
        <mxCell id="K7jrmlSnKd5e08-iuxen-47" value="" style="endArrow=classic;html=1;rounded=0;fontSize=11;exitX=0.5;exitY=0;exitDx=0;exitDy=0;entryX=0.5;entryY=1;entryDx=0;entryDy=0;" parent="K7jrmlSnKd5e08-iuxen-26" source="K7jrmlSnKd5e08-iuxen-45" target="K7jrmlSnKd5e08-iuxen-43" edge="1">
          <mxGeometry width="50" height="50" relative="1" as="geometry">
            <mxPoint x="34.81999999999999" y="155" as="sourcePoint" />
            <mxPoint x="34.81999999999999" y="130" as="targetPoint" />
          </mxGeometry>
        </mxCell>
        <mxCell id="K7jrmlSnKd5e08-iuxen-48" value="" style="endArrow=classic;html=1;rounded=0;fontSize=11;exitX=0.5;exitY=0;exitDx=0;exitDy=0;entryX=0.5;entryY=1;entryDx=0;entryDy=0;" parent="K7jrmlSnKd5e08-iuxen-26" edge="1">
          <mxGeometry width="50" height="50" relative="1" as="geometry">
            <mxPoint x="24.849999999999966" y="25" as="sourcePoint" />
            <mxPoint x="24.849999999999966" as="targetPoint" />
          </mxGeometry>
        </mxCell>
        <mxCell id="K7jrmlSnKd5e08-iuxen-49" value="Context&lt;br&gt;Features" style="text;html=1;strokeColor=none;fillColor=none;align=center;verticalAlign=middle;whiteSpace=wrap;rounded=0;fontSize=11;" parent="K7jrmlSnKd5e08-iuxen-2" vertex="1">
          <mxGeometry y="170" width="60" height="30" as="geometry" />
        </mxCell>
        <mxCell id="K7jrmlSnKd5e08-iuxen-50" value="User Profile&lt;br&gt;Features" style="text;html=1;strokeColor=none;fillColor=none;align=center;verticalAlign=middle;whiteSpace=wrap;rounded=0;fontSize=11;" parent="K7jrmlSnKd5e08-iuxen-2" vertex="1">
          <mxGeometry x="70" y="170" width="65" height="30" as="geometry" />
        </mxCell>
        <mxCell id="K7jrmlSnKd5e08-iuxen-61" value="" style="group" parent="1" vertex="1" connectable="0">
          <mxGeometry x="980" y="561.65" width="65" height="200" as="geometry" />
        </mxCell>
        <mxCell id="K7jrmlSnKd5e08-iuxen-62" value="" style="group" parent="K7jrmlSnKd5e08-iuxen-61" vertex="1" connectable="0">
          <mxGeometry x="5" width="50" height="165" as="geometry" />
        </mxCell>
        <mxCell id="K7jrmlSnKd5e08-iuxen-63" value="" style="group" parent="K7jrmlSnKd5e08-iuxen-62" vertex="1" connectable="0">
          <mxGeometry y="25" width="50" height="65" as="geometry" />
        </mxCell>
        <mxCell id="K7jrmlSnKd5e08-iuxen-64" value="" style="group" parent="K7jrmlSnKd5e08-iuxen-63" vertex="1" connectable="0">
          <mxGeometry x="5" width="40" height="10" as="geometry" />
        </mxCell>
        <mxCell id="K7jrmlSnKd5e08-iuxen-65" value="" style="rounded=0;whiteSpace=wrap;html=1;fontSize=22;strokeColor=none;fillColor=#000000;" parent="K7jrmlSnKd5e08-iuxen-64" vertex="1">
          <mxGeometry width="10" height="10" as="geometry" />
        </mxCell>
        <mxCell id="K7jrmlSnKd5e08-iuxen-66" style="edgeStyle=none;rounded=0;orthogonalLoop=1;jettySize=auto;html=1;exitX=1;exitY=1;exitDx=0;exitDy=0;fontSize=22;strokeColor=none;" parent="K7jrmlSnKd5e08-iuxen-64" source="K7jrmlSnKd5e08-iuxen-65" target="K7jrmlSnKd5e08-iuxen-65" edge="1">
          <mxGeometry relative="1" as="geometry" />
        </mxCell>
        <mxCell id="K7jrmlSnKd5e08-iuxen-67" value="" style="rounded=0;whiteSpace=wrap;html=1;fontSize=22;strokeColor=none;fillColor=#BFBFBF;" parent="K7jrmlSnKd5e08-iuxen-64" vertex="1">
          <mxGeometry x="10" width="10" height="10" as="geometry" />
        </mxCell>
        <mxCell id="K7jrmlSnKd5e08-iuxen-68" value="" style="rounded=0;whiteSpace=wrap;html=1;fontSize=22;strokeColor=none;fillColor=#000000;" parent="K7jrmlSnKd5e08-iuxen-64" vertex="1">
          <mxGeometry x="20" width="10" height="10" as="geometry" />
        </mxCell>
        <mxCell id="K7jrmlSnKd5e08-iuxen-69" value="" style="rounded=0;whiteSpace=wrap;html=1;fontSize=22;strokeColor=none;fillColor=#BFBFBF;" parent="K7jrmlSnKd5e08-iuxen-64" vertex="1">
          <mxGeometry x="30" width="10" height="10" as="geometry" />
        </mxCell>
        <mxCell id="K7jrmlSnKd5e08-iuxen-70" value="" style="shape=curlyBracket;whiteSpace=wrap;html=1;rounded=1;flipH=1;fontSize=22;strokeColor=#000000;fillColor=#000000;rotation=-90;size=0.5;" parent="K7jrmlSnKd5e08-iuxen-63" vertex="1">
          <mxGeometry x="15" y="30" width="20" height="50" as="geometry" />
        </mxCell>
        <mxCell id="K7jrmlSnKd5e08-iuxen-71" value="&lt;font style=&quot;font-size: 11px;&quot;&gt;concat&lt;/font&gt;" style="rounded=1;whiteSpace=wrap;html=1;fontSize=11;strokeColor=#000000;fillColor=none;" parent="K7jrmlSnKd5e08-iuxen-63" vertex="1">
          <mxGeometry x="2.5" y="20" width="45" height="20" as="geometry" />
        </mxCell>
        <mxCell id="K7jrmlSnKd5e08-iuxen-72" value="" style="rounded=0;whiteSpace=wrap;html=1;fontSize=22;strokeColor=none;fillColor=#000000;" parent="K7jrmlSnKd5e08-iuxen-62" vertex="1">
          <mxGeometry x="10" y="90" width="10" height="10" as="geometry" />
        </mxCell>
        <mxCell id="K7jrmlSnKd5e08-iuxen-73" value="" style="rounded=0;whiteSpace=wrap;html=1;fontSize=22;strokeColor=none;fillColor=#BFBFBF;" parent="K7jrmlSnKd5e08-iuxen-62" vertex="1">
          <mxGeometry x="10" y="100" width="10" height="10" as="geometry" />
        </mxCell>
        <mxCell id="K7jrmlSnKd5e08-iuxen-74" value="" style="rounded=0;whiteSpace=wrap;html=1;fontSize=22;strokeColor=none;fillColor=#000000;" parent="K7jrmlSnKd5e08-iuxen-62" vertex="1">
          <mxGeometry x="10" y="110" width="10" height="10" as="geometry" />
        </mxCell>
        <mxCell id="K7jrmlSnKd5e08-iuxen-75" value="" style="rounded=0;whiteSpace=wrap;html=1;fontSize=22;strokeColor=none;fillColor=#BFBFBF;" parent="K7jrmlSnKd5e08-iuxen-62" vertex="1">
          <mxGeometry x="10" y="120" width="10" height="10" as="geometry" />
        </mxCell>
        <mxCell id="K7jrmlSnKd5e08-iuxen-76" value="" style="rounded=0;whiteSpace=wrap;html=1;fontSize=22;strokeColor=none;fillColor=#000000;" parent="K7jrmlSnKd5e08-iuxen-62" vertex="1">
          <mxGeometry x="30" y="90" width="10" height="10" as="geometry" />
        </mxCell>
        <mxCell id="K7jrmlSnKd5e08-iuxen-77" value="" style="rounded=0;whiteSpace=wrap;html=1;fontSize=22;strokeColor=none;fillColor=#BFBFBF;" parent="K7jrmlSnKd5e08-iuxen-62" vertex="1">
          <mxGeometry x="30" y="100" width="10" height="10" as="geometry" />
        </mxCell>
        <mxCell id="K7jrmlSnKd5e08-iuxen-78" value="" style="rounded=0;whiteSpace=wrap;html=1;fontSize=22;strokeColor=none;fillColor=#000000;" parent="K7jrmlSnKd5e08-iuxen-62" vertex="1">
          <mxGeometry x="30" y="110" width="10" height="15" as="geometry" />
        </mxCell>
        <mxCell id="K7jrmlSnKd5e08-iuxen-79" value="" style="rounded=0;whiteSpace=wrap;html=1;fontSize=22;strokeColor=none;fillColor=#BFBFBF;" parent="K7jrmlSnKd5e08-iuxen-62" vertex="1">
          <mxGeometry x="30" y="120" width="10" height="10" as="geometry" />
        </mxCell>
        <mxCell id="K7jrmlSnKd5e08-iuxen-80" value="" style="ellipse;whiteSpace=wrap;html=1;aspect=fixed;fontSize=11;strokeColor=#000000;fillColor=none;" parent="K7jrmlSnKd5e08-iuxen-62" vertex="1">
          <mxGeometry x="10" y="155" width="10" height="10" as="geometry" />
        </mxCell>
        <mxCell id="K7jrmlSnKd5e08-iuxen-81" value="" style="ellipse;whiteSpace=wrap;html=1;aspect=fixed;fontSize=11;strokeColor=#000000;fillColor=none;" parent="K7jrmlSnKd5e08-iuxen-62" vertex="1">
          <mxGeometry x="30" y="155" width="10" height="10" as="geometry" />
        </mxCell>
        <mxCell id="K7jrmlSnKd5e08-iuxen-82" value="" style="endArrow=classic;html=1;rounded=0;fontSize=11;exitX=0.5;exitY=0;exitDx=0;exitDy=0;entryX=0.5;entryY=1;entryDx=0;entryDy=0;" parent="K7jrmlSnKd5e08-iuxen-62" source="K7jrmlSnKd5e08-iuxen-80" target="K7jrmlSnKd5e08-iuxen-75" edge="1">
          <mxGeometry width="50" height="50" relative="1" as="geometry">
            <mxPoint x="-20" y="65" as="sourcePoint" />
            <mxPoint x="30" y="15" as="targetPoint" />
          </mxGeometry>
        </mxCell>
        <mxCell id="K7jrmlSnKd5e08-iuxen-83" value="" style="endArrow=classic;html=1;rounded=0;fontSize=11;exitX=0.5;exitY=0;exitDx=0;exitDy=0;entryX=0.5;entryY=1;entryDx=0;entryDy=0;" parent="K7jrmlSnKd5e08-iuxen-62" source="K7jrmlSnKd5e08-iuxen-81" target="K7jrmlSnKd5e08-iuxen-79" edge="1">
          <mxGeometry width="50" height="50" relative="1" as="geometry">
            <mxPoint x="34.81999999999999" y="155" as="sourcePoint" />
            <mxPoint x="34.81999999999999" y="130" as="targetPoint" />
          </mxGeometry>
        </mxCell>
        <mxCell id="K7jrmlSnKd5e08-iuxen-84" value="" style="endArrow=classic;html=1;rounded=0;fontSize=11;exitX=0.5;exitY=0;exitDx=0;exitDy=0;entryX=0.5;entryY=1;entryDx=0;entryDy=0;" parent="K7jrmlSnKd5e08-iuxen-62" edge="1">
          <mxGeometry width="50" height="50" relative="1" as="geometry">
            <mxPoint x="24.849999999999966" y="25" as="sourcePoint" />
            <mxPoint x="24.849999999999966" as="targetPoint" />
          </mxGeometry>
        </mxCell>
        <mxCell id="K7jrmlSnKd5e08-iuxen-85" value="Cross&lt;br&gt;Features" style="text;html=1;strokeColor=none;fillColor=none;align=center;verticalAlign=middle;whiteSpace=wrap;rounded=0;fontSize=11;" parent="K7jrmlSnKd5e08-iuxen-61" vertex="1">
          <mxGeometry y="170" width="65" height="30" as="geometry" />
        </mxCell>
        <mxCell id="K7jrmlSnKd5e08-iuxen-261" style="edgeStyle=orthogonalEdgeStyle;rounded=0;orthogonalLoop=1;jettySize=auto;html=1;entryX=0.5;entryY=1;entryDx=0;entryDy=0;" parent="1" target="K7jrmlSnKd5e08-iuxen-265" edge="1">
          <mxGeometry relative="1" as="geometry">
            <mxPoint x="953.69" y="539.9999999999998" as="sourcePoint" />
          </mxGeometry>
        </mxCell>
        <mxCell id="K7jrmlSnKd5e08-iuxen-262" style="edgeStyle=orthogonalEdgeStyle;rounded=0;orthogonalLoop=1;jettySize=auto;html=1;entryX=0.5;entryY=1;entryDx=0;entryDy=0;" parent="1" target="K7jrmlSnKd5e08-iuxen-264" edge="1">
          <mxGeometry relative="1" as="geometry">
            <mxPoint x="703.69" y="539.9999999999998" as="sourcePoint" />
            <Array as="points">
              <mxPoint x="703.69" y="540" />
            </Array>
          </mxGeometry>
        </mxCell>
        <mxCell id="K7jrmlSnKd5e08-iuxen-263" style="edgeStyle=orthogonalEdgeStyle;rounded=0;orthogonalLoop=1;jettySize=auto;html=1;entryX=0.5;entryY=1;entryDx=0;entryDy=0;" parent="1" target="K7jrmlSnKd5e08-iuxen-275" edge="1">
          <mxGeometry relative="1" as="geometry">
            <mxPoint x="832.69" y="539.9999999999998" as="sourcePoint" />
            <Array as="points">
              <mxPoint x="832.69" y="540" />
              <mxPoint x="832.69" y="520" />
            </Array>
          </mxGeometry>
        </mxCell>
        <mxCell id="K7jrmlSnKd5e08-iuxen-264" value="CTR_tower" style="rounded=0;whiteSpace=wrap;html=1;fillColor=#ffe6cc;strokeColor=#d79b00;" parent="1" vertex="1">
          <mxGeometry x="658.69" y="480" width="90" height="40" as="geometry" />
        </mxCell>
        <mxCell id="K7jrmlSnKd5e08-iuxen-265" value="CVR_tower" style="rounded=0;whiteSpace=wrap;html=1;fillColor=#fff2cc;strokeColor=#d6b656;" parent="1" vertex="1">
          <mxGeometry x="908.69" y="480" width="90" height="40" as="geometry" />
        </mxCell>
        <mxCell id="K7jrmlSnKd5e08-iuxen-266" value="sigmoid" style="rounded=0;whiteSpace=wrap;html=1;fillColor=#ffe6cc;strokeColor=#d79b00;" parent="1" vertex="1">
          <mxGeometry x="658.69" y="430" width="90" height="30" as="geometry" />
        </mxCell>
        <mxCell id="K7jrmlSnKd5e08-iuxen-267" style="edgeStyle=orthogonalEdgeStyle;rounded=0;orthogonalLoop=1;jettySize=auto;html=1;exitX=0.5;exitY=0;exitDx=0;exitDy=0;entryX=0.5;entryY=1;entryDx=0;entryDy=0;" parent="1" source="K7jrmlSnKd5e08-iuxen-264" target="K7jrmlSnKd5e08-iuxen-266" edge="1">
          <mxGeometry relative="1" as="geometry" />
        </mxCell>
        <mxCell id="K7jrmlSnKd5e08-iuxen-268" value="sigmoid" style="rounded=0;whiteSpace=wrap;html=1;fillColor=#fff2cc;strokeColor=#d6b656;" parent="1" vertex="1">
          <mxGeometry x="908.69" y="430" width="90" height="30" as="geometry" />
        </mxCell>
        <mxCell id="K7jrmlSnKd5e08-iuxen-269" style="edgeStyle=orthogonalEdgeStyle;rounded=0;orthogonalLoop=1;jettySize=auto;html=1;exitX=0.5;exitY=0;exitDx=0;exitDy=0;entryX=0.5;entryY=1;entryDx=0;entryDy=0;" parent="1" source="K7jrmlSnKd5e08-iuxen-265" target="K7jrmlSnKd5e08-iuxen-268" edge="1">
          <mxGeometry relative="1" as="geometry" />
        </mxCell>
        <mxCell id="K7jrmlSnKd5e08-iuxen-270" style="edgeStyle=none;rounded=0;orthogonalLoop=1;jettySize=auto;html=1;exitX=0.5;exitY=0;exitDx=0;exitDy=0;fontSize=21;" parent="1" source="K7jrmlSnKd5e08-iuxen-271" edge="1">
          <mxGeometry relative="1" as="geometry">
            <mxPoint x="703.7669230769229" y="370" as="targetPoint" />
          </mxGeometry>
        </mxCell>
        <mxCell id="K7jrmlSnKd5e08-iuxen-271" value="" style="ellipse;whiteSpace=wrap;html=1;aspect=fixed;" parent="1" vertex="1">
          <mxGeometry x="693.69" y="390" width="20" height="20" as="geometry" />
        </mxCell>
        <mxCell id="K7jrmlSnKd5e08-iuxen-272" style="edgeStyle=orthogonalEdgeStyle;rounded=0;orthogonalLoop=1;jettySize=auto;html=1;exitX=0.5;exitY=0;exitDx=0;exitDy=0;entryX=0.5;entryY=1;entryDx=0;entryDy=0;" parent="1" source="K7jrmlSnKd5e08-iuxen-266" target="K7jrmlSnKd5e08-iuxen-271" edge="1">
          <mxGeometry relative="1" as="geometry" />
        </mxCell>
        <mxCell id="K7jrmlSnKd5e08-iuxen-273" style="edgeStyle=orthogonalEdgeStyle;rounded=0;orthogonalLoop=1;jettySize=auto;html=1;exitX=0.5;exitY=0;exitDx=0;exitDy=0;entryX=1;entryY=0.5;entryDx=0;entryDy=0;" parent="1" source="K7jrmlSnKd5e08-iuxen-275" target="K7jrmlSnKd5e08-iuxen-266" edge="1">
          <mxGeometry relative="1" as="geometry" />
        </mxCell>
        <mxCell id="K7jrmlSnKd5e08-iuxen-274" style="edgeStyle=orthogonalEdgeStyle;rounded=0;orthogonalLoop=1;jettySize=auto;html=1;exitX=0.5;exitY=0;exitDx=0;exitDy=0;entryX=0;entryY=0.5;entryDx=0;entryDy=0;" parent="1" source="K7jrmlSnKd5e08-iuxen-275" target="K7jrmlSnKd5e08-iuxen-268" edge="1">
          <mxGeometry relative="1" as="geometry" />
        </mxCell>
        <mxCell id="K7jrmlSnKd5e08-iuxen-275" value="Bias_tower" style="rounded=0;whiteSpace=wrap;html=1;fillColor=#f5f5f5;fontColor=#333333;strokeColor=#666666;" parent="1" vertex="1">
          <mxGeometry x="792.19" y="480" width="80" height="40" as="geometry" />
        </mxCell>
        <mxCell id="K7jrmlSnKd5e08-iuxen-277" value="" style="ellipse;whiteSpace=wrap;html=1;aspect=fixed;" parent="1" vertex="1">
          <mxGeometry x="943.69" y="390" width="20" height="20" as="geometry" />
        </mxCell>
        <mxCell id="K7jrmlSnKd5e08-iuxen-278" style="edgeStyle=orthogonalEdgeStyle;rounded=0;orthogonalLoop=1;jettySize=auto;html=1;exitX=0.5;exitY=0;exitDx=0;exitDy=0;entryX=0.5;entryY=1;entryDx=0;entryDy=0;" parent="1" source="K7jrmlSnKd5e08-iuxen-268" target="K7jrmlSnKd5e08-iuxen-277" edge="1">
          <mxGeometry relative="1" as="geometry" />
        </mxCell>
        <mxCell id="K7jrmlSnKd5e08-iuxen-279" style="edgeStyle=none;rounded=0;orthogonalLoop=1;jettySize=auto;html=1;exitX=0.5;exitY=0;exitDx=0;exitDy=0;fontSize=21;" parent="1" edge="1">
          <mxGeometry relative="1" as="geometry">
            <mxPoint x="832.2284615384615" y="340" as="targetPoint" />
            <mxPoint x="832.19" y="360" as="sourcePoint" />
          </mxGeometry>
        </mxCell>
        <mxCell id="K7jrmlSnKd5e08-iuxen-281" style="rounded=0;orthogonalLoop=1;jettySize=auto;html=1;exitX=1;exitY=0;exitDx=0;exitDy=0;entryX=0;entryY=0.5;entryDx=0;entryDy=0;fontSize=21;" parent="1" source="K7jrmlSnKd5e08-iuxen-271" edge="1">
          <mxGeometry relative="1" as="geometry">
            <mxPoint x="822.1900000000005" y="370" as="targetPoint" />
          </mxGeometry>
        </mxCell>
        <mxCell id="K7jrmlSnKd5e08-iuxen-282" style="edgeStyle=none;rounded=0;orthogonalLoop=1;jettySize=auto;html=1;exitX=0;exitY=0;exitDx=0;exitDy=0;entryX=1;entryY=0.5;entryDx=0;entryDy=0;fontSize=21;" parent="1" source="K7jrmlSnKd5e08-iuxen-277" edge="1">
          <mxGeometry relative="1" as="geometry">
            <mxPoint x="842.1900000000005" y="370" as="targetPoint" />
          </mxGeometry>
        </mxCell>
        <mxCell id="K7jrmlSnKd5e08-iuxen-283" value="&lt;font style=&quot;font-size: 12px;&quot;&gt;pCTR&lt;/font&gt;" style="text;html=1;strokeColor=none;fillColor=none;align=center;verticalAlign=middle;whiteSpace=wrap;rounded=0;fontSize=21;" parent="1" vertex="1">
          <mxGeometry x="673.69" y="340" width="60" height="30" as="geometry" />
        </mxCell>
        <mxCell id="K7jrmlSnKd5e08-iuxen-284" value="&lt;font style=&quot;font-size: 12px;&quot;&gt;pCVR&lt;/font&gt;" style="text;html=1;strokeColor=none;fillColor=none;align=center;verticalAlign=middle;whiteSpace=wrap;rounded=0;fontSize=21;" parent="1" vertex="1">
          <mxGeometry x="923.69" y="340" width="60" height="30" as="geometry" />
        </mxCell>
        <mxCell id="K7jrmlSnKd5e08-iuxen-565" style="edgeStyle=orthogonalEdgeStyle;rounded=0;orthogonalLoop=1;jettySize=auto;html=1;exitX=0.5;exitY=0;exitDx=0;exitDy=0;fontFamily=Times New Roman;fontColor=#FF0000;" parent="1" source="K7jrmlSnKd5e08-iuxen-559" edge="1">
          <mxGeometry relative="1" as="geometry">
            <mxPoint x="832.5081818181816" y="300" as="targetPoint" />
          </mxGeometry>
        </mxCell>
        <mxCell id="K7jrmlSnKd5e08-iuxen-559" value="" style="ellipse;whiteSpace=wrap;html=1;aspect=fixed;" parent="1" vertex="1">
          <mxGeometry x="822.19" y="320" width="20" height="20" as="geometry" />
        </mxCell>
        <mxCell id="K7jrmlSnKd5e08-iuxen-595" value="" style="shape=sumEllipse;perimeter=ellipsePerimeter;whiteSpace=wrap;html=1;backgroundOutline=1;strokeColor=#000000;fontFamily=Times New Roman;fontColor=#000000;" parent="1" vertex="1">
          <mxGeometry x="822.19" y="360" width="20" height="20" as="geometry" />
        </mxCell>
        <mxCell id="K7jrmlSnKd5e08-iuxen-133" value="" style="shape=curlyBracket;whiteSpace=wrap;html=1;rounded=1;flipH=1;fontSize=22;strokeColor=#000000;fillColor=#000000;rotation=-90;size=0.5;" parent="1" vertex="1">
          <mxGeometry x="922.5" y="616.0300000000002" width="20" height="50" as="geometry" />
        </mxCell>
        <mxCell id="K7jrmlSnKd5e08-iuxen-134" value="&lt;font style=&quot;font-size: 11px;&quot;&gt;concat&lt;/font&gt;" style="rounded=1;whiteSpace=wrap;html=1;fontSize=11;strokeColor=#000000;fillColor=none;" parent="1" vertex="1">
          <mxGeometry x="910" y="606.0300000000002" width="45" height="20" as="geometry" />
        </mxCell>
        <mxCell id="K7jrmlSnKd5e08-iuxen-135" value="" style="group" parent="1" vertex="1" connectable="0">
          <mxGeometry x="915" y="586.2000000000002" width="40" height="10" as="geometry" />
        </mxCell>
        <mxCell id="K7jrmlSnKd5e08-iuxen-136" value="" style="rounded=0;whiteSpace=wrap;html=1;fontSize=22;strokeColor=none;fillColor=#CDA2BE;" parent="K7jrmlSnKd5e08-iuxen-135" vertex="1">
          <mxGeometry width="10" height="10" as="geometry" />
        </mxCell>
        <mxCell id="K7jrmlSnKd5e08-iuxen-137" style="edgeStyle=none;rounded=0;orthogonalLoop=1;jettySize=auto;html=1;exitX=1;exitY=1;exitDx=0;exitDy=0;fontSize=22;strokeColor=none;" parent="K7jrmlSnKd5e08-iuxen-135" source="K7jrmlSnKd5e08-iuxen-136" target="K7jrmlSnKd5e08-iuxen-136" edge="1">
          <mxGeometry relative="1" as="geometry" />
        </mxCell>
        <mxCell id="K7jrmlSnKd5e08-iuxen-138" value="" style="rounded=0;whiteSpace=wrap;html=1;fontSize=22;strokeColor=none;fillColor=#FFCE9F;" parent="K7jrmlSnKd5e08-iuxen-135" vertex="1">
          <mxGeometry x="10" width="10" height="10" as="geometry" />
        </mxCell>
        <mxCell id="K7jrmlSnKd5e08-iuxen-139" value="" style="rounded=0;whiteSpace=wrap;html=1;fontSize=22;strokeColor=none;fillColor=#CDA2BE;" parent="K7jrmlSnKd5e08-iuxen-135" vertex="1">
          <mxGeometry x="20" width="10" height="10" as="geometry" />
        </mxCell>
        <mxCell id="K7jrmlSnKd5e08-iuxen-140" value="" style="rounded=0;whiteSpace=wrap;html=1;fontSize=22;strokeColor=none;fillColor=#FFCE9F;" parent="K7jrmlSnKd5e08-iuxen-135" vertex="1">
          <mxGeometry x="30" width="10" height="10" as="geometry" />
        </mxCell>
        <mxCell id="K7jrmlSnKd5e08-iuxen-141" value="" style="rounded=0;whiteSpace=wrap;html=1;fontSize=22;strokeColor=none;fillColor=#CDA2BE;" parent="1" vertex="1">
          <mxGeometry x="917.5" y="651.0300000000002" width="10" height="10" as="geometry" />
        </mxCell>
        <mxCell id="K7jrmlSnKd5e08-iuxen-142" value="" style="rounded=0;whiteSpace=wrap;html=1;fontSize=22;strokeColor=none;fillColor=#E6D0DE;" parent="1" vertex="1">
          <mxGeometry x="917.5" y="661.0300000000002" width="10" height="10" as="geometry" />
        </mxCell>
        <mxCell id="K7jrmlSnKd5e08-iuxen-143" value="" style="rounded=0;whiteSpace=wrap;html=1;fontSize=22;strokeColor=none;fillColor=#CDA2BE;" parent="1" vertex="1">
          <mxGeometry x="917.5" y="671.0300000000002" width="10" height="10" as="geometry" />
        </mxCell>
        <mxCell id="K7jrmlSnKd5e08-iuxen-144" value="" style="rounded=0;whiteSpace=wrap;html=1;fontSize=22;strokeColor=none;fillColor=#E6D0DE;" parent="1" vertex="1">
          <mxGeometry x="917.5" y="681.0300000000002" width="10" height="10" as="geometry" />
        </mxCell>
        <mxCell id="K7jrmlSnKd5e08-iuxen-145" value="" style="rounded=0;whiteSpace=wrap;html=1;fontSize=22;strokeColor=none;fillColor=#FFB570;" parent="1" vertex="1">
          <mxGeometry x="937.5" y="651.0300000000002" width="10" height="10" as="geometry" />
        </mxCell>
        <mxCell id="K7jrmlSnKd5e08-iuxen-146" value="" style="rounded=0;whiteSpace=wrap;html=1;fontSize=22;strokeColor=none;fillColor=#FFCE9F;" parent="1" vertex="1">
          <mxGeometry x="937.5" y="661.0300000000002" width="10" height="10" as="geometry" />
        </mxCell>
        <mxCell id="K7jrmlSnKd5e08-iuxen-147" value="" style="rounded=0;whiteSpace=wrap;html=1;fontSize=22;strokeColor=none;fillColor=#FFB570;" parent="1" vertex="1">
          <mxGeometry x="937.5" y="671.0300000000002" width="10" height="15" as="geometry" />
        </mxCell>
        <mxCell id="K7jrmlSnKd5e08-iuxen-148" value="" style="rounded=0;whiteSpace=wrap;html=1;fontSize=22;strokeColor=none;fillColor=#FFCE9F;" parent="1" vertex="1">
          <mxGeometry x="937.5" y="681.0300000000002" width="10" height="10" as="geometry" />
        </mxCell>
        <mxCell id="K7jrmlSnKd5e08-iuxen-149" value="" style="ellipse;whiteSpace=wrap;html=1;aspect=fixed;fontSize=11;strokeColor=#000000;fillColor=none;" parent="1" vertex="1">
          <mxGeometry x="917.5" y="716.0300000000002" width="10" height="10" as="geometry" />
        </mxCell>
        <mxCell id="K7jrmlSnKd5e08-iuxen-150" value="" style="ellipse;whiteSpace=wrap;html=1;aspect=fixed;fontSize=11;strokeColor=#000000;fillColor=none;" parent="1" vertex="1">
          <mxGeometry x="937.5" y="716.0300000000002" width="10" height="10" as="geometry" />
        </mxCell>
        <mxCell id="K7jrmlSnKd5e08-iuxen-151" value="" style="endArrow=classic;html=1;rounded=0;fontSize=11;exitX=0.5;exitY=0;exitDx=0;exitDy=0;entryX=0.5;entryY=1;entryDx=0;entryDy=0;" parent="1" source="K7jrmlSnKd5e08-iuxen-149" target="K7jrmlSnKd5e08-iuxen-144" edge="1">
          <mxGeometry width="50" height="50" relative="1" as="geometry">
            <mxPoint x="887.5" y="626.0300000000002" as="sourcePoint" />
            <mxPoint x="937.5" y="576.0300000000002" as="targetPoint" />
          </mxGeometry>
        </mxCell>
        <mxCell id="K7jrmlSnKd5e08-iuxen-152" value="" style="endArrow=classic;html=1;rounded=0;fontSize=11;exitX=0.5;exitY=0;exitDx=0;exitDy=0;entryX=0.5;entryY=1;entryDx=0;entryDy=0;" parent="1" source="K7jrmlSnKd5e08-iuxen-150" target="K7jrmlSnKd5e08-iuxen-148" edge="1">
          <mxGeometry width="50" height="50" relative="1" as="geometry">
            <mxPoint x="942.3199999999999" y="716.0300000000002" as="sourcePoint" />
            <mxPoint x="942.3199999999999" y="691.0300000000002" as="targetPoint" />
          </mxGeometry>
        </mxCell>
        <mxCell id="K7jrmlSnKd5e08-iuxen-153" value="Item&lt;br&gt;Features" style="text;html=1;strokeColor=none;fillColor=none;align=center;verticalAlign=middle;whiteSpace=wrap;rounded=0;fontSize=11;" parent="1" vertex="1">
          <mxGeometry x="900" y="731.6500000000002" width="65" height="30" as="geometry" />
        </mxCell>
        <mxCell id="cysShiUN6PF5TXXtmTjT-1" style="edgeStyle=none;rounded=0;orthogonalLoop=1;jettySize=auto;html=1;exitX=0.5;exitY=0;exitDx=0;exitDy=0;fontSize=21;" edge="1" parent="1">
          <mxGeometry relative="1" as="geometry">
            <mxPoint x="953.5969230769228" y="370" as="targetPoint" />
            <mxPoint x="953.52" y="390" as="sourcePoint" />
          </mxGeometry>
        </mxCell>
        <mxCell id="cysShiUN6PF5TXXtmTjT-2" value="&lt;font style=&quot;font-size: 12px;&quot;&gt;pCTVR&lt;/font&gt;" style="text;html=1;strokeColor=none;fillColor=none;align=center;verticalAlign=middle;whiteSpace=wrap;rounded=0;fontSize=21;" vertex="1" parent="1">
          <mxGeometry x="801.8199999999999" y="270" width="60" height="30" as="geometry" />
        </mxCell>
        <mxCell id="cysShiUN6PF5TXXtmTjT-3" style="edgeStyle=orthogonalEdgeStyle;rounded=0;orthogonalLoop=1;jettySize=auto;html=1;strokeColor=#FF8000;" edge="1" parent="1">
          <mxGeometry relative="1" as="geometry">
            <mxPoint x="930" y="586" as="sourcePoint" />
            <mxPoint x="930" y="560" as="targetPoint" />
            <Array as="points">
              <mxPoint x="930" y="586" />
              <mxPoint x="930" y="560" />
            </Array>
          </mxGeometry>
        </mxCell>
        <mxCell id="s96yfOAvuMhZukNOSEZi-5" value="" style="shape=sumEllipse;perimeter=ellipsePerimeter;whiteSpace=wrap;html=1;backgroundOutline=1;" parent="1" vertex="1">
          <mxGeometry x="712.72" y="645" width="10" height="10" as="geometry" />
        </mxCell>
        <mxCell id="s96yfOAvuMhZukNOSEZi-38" value="" style="shape=sumEllipse;perimeter=ellipsePerimeter;whiteSpace=wrap;html=1;backgroundOutline=1;" parent="1" vertex="1">
          <mxGeometry x="804.08" y="645" width="10" height="10" as="geometry" />
        </mxCell>
        <mxCell id="K7jrmlSnKd5e08-iuxen-370" value="" style="endArrow=classic;html=1;rounded=0;fontFamily=Georgia;fontSize=11;strokeColor=#000000;exitX=0.5;exitY=0;exitDx=0;exitDy=0;entryX=0.547;entryY=0.143;entryDx=0;entryDy=0;entryPerimeter=0;" parent="1" edge="1">
          <mxGeometry width="50" height="50" relative="1" as="geometry">
            <mxPoint x="809.2099999999999" y="645.0000000000002" as="sourcePoint" />
            <mxPoint x="808.9499999999997" y="630.94" as="targetPoint" />
          </mxGeometry>
        </mxCell>
        <mxCell id="K7jrmlSnKd5e08-iuxen-371" value="&lt;font style=&quot;font-size: 22px;&quot;&gt;……&lt;/font&gt;" style="text;html=1;strokeColor=none;fillColor=none;align=center;verticalAlign=middle;whiteSpace=wrap;rounded=0;fontFamily=Georgia;fontSize=11;" parent="1" vertex="1">
          <mxGeometry x="758.83" y="719.1800000000001" width="60" height="30" as="geometry" />
        </mxCell>
        <mxCell id="K7jrmlSnKd5e08-iuxen-299" value="" style="shape=curlyBracket;whiteSpace=wrap;html=1;rounded=1;flipH=1;fontSize=22;strokeColor=#000000;fillColor=#000000;rotation=-90;size=0.5;" parent="1" vertex="1">
          <mxGeometry x="722.7199999999999" y="510.00000000000006" width="20" height="215.17" as="geometry" />
        </mxCell>
        <mxCell id="K7jrmlSnKd5e08-iuxen-298" value="&lt;font style=&quot;font-size: 11px;&quot;&gt;concat&lt;/font&gt;" style="rounded=1;whiteSpace=wrap;html=1;fontSize=11;strokeColor=#000000;fillColor=none;" parent="1" vertex="1">
          <mxGeometry x="711.7099999999999" y="589.1800000000001" width="45" height="20" as="geometry" />
        </mxCell>
        <mxCell id="K7jrmlSnKd5e08-iuxen-323" value="" style="group" parent="1" vertex="1" connectable="0">
          <mxGeometry x="684" y="660.8299999999999" width="80" height="127.29000000000008" as="geometry" />
        </mxCell>
        <mxCell id="K7jrmlSnKd5e08-iuxen-324" value="" style="group" parent="K7jrmlSnKd5e08-iuxen-323" vertex="1" connectable="0">
          <mxGeometry x="34.00230769230769" width="40" height="44.57142857142857" as="geometry" />
        </mxCell>
        <mxCell id="K7jrmlSnKd5e08-iuxen-325" value="" style="shape=curlyBracket;whiteSpace=wrap;html=1;rounded=1;flipH=1;fontSize=22;strokeColor=#000000;fillColor=#000000;rotation=-90;size=0.5;" parent="K7jrmlSnKd5e08-iuxen-324" vertex="1">
          <mxGeometry x="18.076923076923077" y="36.62142857142857" width="10.769230769230768" height="34.285714285714285" as="geometry" />
        </mxCell>
        <mxCell id="K7jrmlSnKd5e08-iuxen-326" value="&lt;font style=&quot;font-size: 11px;&quot;&gt;concat&lt;/font&gt;" style="rounded=1;whiteSpace=wrap;html=1;fontSize=11;strokeColor=#000000;fillColor=none;" parent="K7jrmlSnKd5e08-iuxen-324" vertex="1">
          <mxGeometry x="4.14" y="36.05" width="38.65" height="10.43" as="geometry" />
        </mxCell>
        <mxCell id="K7jrmlSnKd5e08-iuxen-327" value="" style="rounded=0;whiteSpace=wrap;html=1;fontSize=22;strokeColor=none;fillColor=#99CCFF;" parent="K7jrmlSnKd5e08-iuxen-323" vertex="1">
          <mxGeometry x="49.386923076923075" y="60.62142857142857" width="5.384615384615384" height="6.857142857142857" as="geometry" />
        </mxCell>
        <mxCell id="K7jrmlSnKd5e08-iuxen-328" value="" style="rounded=0;whiteSpace=wrap;html=1;fontSize=22;strokeColor=none;fillColor=#3399FF;" parent="K7jrmlSnKd5e08-iuxen-323" vertex="1">
          <mxGeometry x="49.386923076923075" y="67.47857142857143" width="5.384615384615384" height="6.857142857142857" as="geometry" />
        </mxCell>
        <mxCell id="K7jrmlSnKd5e08-iuxen-329" value="" style="rounded=0;whiteSpace=wrap;html=1;fontSize=22;strokeColor=none;fillColor=#99CCFF;" parent="K7jrmlSnKd5e08-iuxen-323" vertex="1">
          <mxGeometry x="49.386923076923075" y="74.33571428571429" width="5.384615384615384" height="6.857142857142857" as="geometry" />
        </mxCell>
        <mxCell id="K7jrmlSnKd5e08-iuxen-330" value="" style="rounded=0;whiteSpace=wrap;html=1;fontSize=22;strokeColor=none;fillColor=#3399FF;" parent="K7jrmlSnKd5e08-iuxen-323" vertex="1">
          <mxGeometry x="49.386923076923075" y="81.19285714285714" width="5.384615384615384" height="6.857142857142857" as="geometry" />
        </mxCell>
        <mxCell id="K7jrmlSnKd5e08-iuxen-331" value="" style="rounded=0;whiteSpace=wrap;html=1;fontSize=22;strokeColor=none;fillColor=#97D077;" parent="K7jrmlSnKd5e08-iuxen-323" vertex="1">
          <mxGeometry x="61.30615384615385" y="60.62142857142857" width="5.384615384615384" height="6.857142857142857" as="geometry" />
        </mxCell>
        <mxCell id="K7jrmlSnKd5e08-iuxen-332" value="" style="rounded=0;whiteSpace=wrap;html=1;fontSize=22;strokeColor=none;fillColor=#B9E0A5;" parent="K7jrmlSnKd5e08-iuxen-323" vertex="1">
          <mxGeometry x="61.30615384615385" y="67.47857142857143" width="5.384615384615384" height="6.857142857142857" as="geometry" />
        </mxCell>
        <mxCell id="K7jrmlSnKd5e08-iuxen-333" value="" style="rounded=0;whiteSpace=wrap;html=1;fontSize=22;strokeColor=none;fillColor=#97D077;" parent="K7jrmlSnKd5e08-iuxen-323" vertex="1">
          <mxGeometry x="61.30615384615385" y="74.33571428571429" width="5.384615384615384" height="10.285714285714285" as="geometry" />
        </mxCell>
        <mxCell id="K7jrmlSnKd5e08-iuxen-334" value="" style="rounded=0;whiteSpace=wrap;html=1;fontSize=22;strokeColor=none;fillColor=#B9E0A5;" parent="K7jrmlSnKd5e08-iuxen-323" vertex="1">
          <mxGeometry x="61.30615384615385" y="81.19285714285714" width="5.384615384615384" height="6.857142857142857" as="geometry" />
        </mxCell>
        <mxCell id="K7jrmlSnKd5e08-iuxen-335" value="" style="ellipse;whiteSpace=wrap;html=1;aspect=fixed;fontSize=11;strokeColor=#000000;fillColor=none;" parent="K7jrmlSnKd5e08-iuxen-323" vertex="1">
          <mxGeometry x="49.386923076923075" y="105.19285714285714" width="4.615384615384615" height="4.615384615384615" as="geometry" />
        </mxCell>
        <mxCell id="K7jrmlSnKd5e08-iuxen-336" value="" style="ellipse;whiteSpace=wrap;html=1;aspect=fixed;fontSize=11;strokeColor=#000000;fillColor=none;" parent="K7jrmlSnKd5e08-iuxen-323" vertex="1">
          <mxGeometry x="61.30615384615385" y="105.19285714285714" width="4.615384615384615" height="4.615384615384615" as="geometry" />
        </mxCell>
        <mxCell id="K7jrmlSnKd5e08-iuxen-337" value="" style="endArrow=classic;html=1;rounded=0;fontSize=11;exitX=0.5;exitY=0;exitDx=0;exitDy=0;entryX=0.5;entryY=1;entryDx=0;entryDy=0;" parent="K7jrmlSnKd5e08-iuxen-323" source="K7jrmlSnKd5e08-iuxen-335" target="K7jrmlSnKd5e08-iuxen-330" edge="1">
          <mxGeometry width="50" height="50" relative="1" as="geometry">
            <mxPoint x="-281.76692307692304" y="-169.09285714285713" as="sourcePoint" />
            <mxPoint x="-254.84384615384613" y="-203.3785714285714" as="targetPoint" />
          </mxGeometry>
        </mxCell>
        <mxCell id="K7jrmlSnKd5e08-iuxen-338" value="" style="endArrow=classic;html=1;rounded=0;fontSize=11;exitX=0.5;exitY=0;exitDx=0;exitDy=0;entryX=0.5;entryY=1;entryDx=0;entryDy=0;" parent="K7jrmlSnKd5e08-iuxen-323" source="K7jrmlSnKd5e08-iuxen-336" target="K7jrmlSnKd5e08-iuxen-334" edge="1">
          <mxGeometry width="50" height="50" relative="1" as="geometry">
            <mxPoint x="-251.0984615384616" y="-107.37857142857142" as="sourcePoint" />
            <mxPoint x="-251.0984615384616" y="-124.52142857142854" as="targetPoint" />
          </mxGeometry>
        </mxCell>
        <mxCell id="K7jrmlSnKd5e08-iuxen-339" value="&lt;font style=&quot;font-size: 9px;&quot; face=&quot;Georgia&quot;&gt;&lt;i&gt;Item &lt;sub&gt;s2&lt;/sub&gt;&lt;/i&gt;&lt;/font&gt;" style="text;html=1;strokeColor=none;fillColor=none;align=center;verticalAlign=middle;whiteSpace=wrap;rounded=0;fontSize=11;" parent="K7jrmlSnKd5e08-iuxen-323" vertex="1">
          <mxGeometry x="26" y="105.19000000000001" width="60" height="20.57" as="geometry" />
        </mxCell>
        <mxCell id="s96yfOAvuMhZukNOSEZi-1" value="" style="shape=sumEllipse;perimeter=ellipsePerimeter;whiteSpace=wrap;html=1;backgroundOutline=1;" parent="K7jrmlSnKd5e08-iuxen-323" vertex="1">
          <mxGeometry x="-53.99999999999996" y="-15.829999999999927" width="10" height="10" as="geometry" />
        </mxCell>
        <mxCell id="K7jrmlSnKd5e08-iuxen-346" value="" style="endArrow=classic;html=1;rounded=0;fontFamily=Georgia;fontSize=11;strokeColor=#000000;exitX=0.5;exitY=0;exitDx=0;exitDy=0;" parent="K7jrmlSnKd5e08-iuxen-323" edge="1">
          <mxGeometry width="50" height="50" relative="1" as="geometry">
            <mxPoint x="-49.229999999999976" y="-15.830000000000041" as="sourcePoint" />
            <mxPoint x="-49.229999999999976" y="-31.659999999999968" as="targetPoint" />
          </mxGeometry>
        </mxCell>
        <mxCell id="K7jrmlSnKd5e08-iuxen-301" value="" style="group" parent="K7jrmlSnKd5e08-iuxen-323" vertex="1" connectable="0">
          <mxGeometry x="-41.887692307692305" width="40" height="44.57142857142857" as="geometry" />
        </mxCell>
        <mxCell id="K7jrmlSnKd5e08-iuxen-302" value="" style="shape=curlyBracket;whiteSpace=wrap;html=1;rounded=1;flipH=1;fontSize=22;strokeColor=#000000;fillColor=#000000;rotation=-90;size=0.5;" parent="K7jrmlSnKd5e08-iuxen-301" vertex="1">
          <mxGeometry x="18.076923076923077" y="36.62142857142857" width="10.769230769230768" height="34.285714285714285" as="geometry" />
        </mxCell>
        <mxCell id="K7jrmlSnKd5e08-iuxen-303" value="&lt;font style=&quot;font-size: 11px;&quot;&gt;concat&lt;/font&gt;" style="rounded=1;whiteSpace=wrap;html=1;fontSize=11;strokeColor=#000000;fillColor=none;" parent="K7jrmlSnKd5e08-iuxen-301" vertex="1">
          <mxGeometry x="4.14" y="36.05" width="38.65" height="10.43" as="geometry" />
        </mxCell>
        <mxCell id="K7jrmlSnKd5e08-iuxen-304" value="" style="rounded=0;whiteSpace=wrap;html=1;fontSize=22;strokeColor=none;fillColor=#99CCFF;" parent="K7jrmlSnKd5e08-iuxen-323" vertex="1">
          <mxGeometry x="-26.503076923076918" y="60.62142857142857" width="5.384615384615384" height="6.857142857142857" as="geometry" />
        </mxCell>
        <mxCell id="K7jrmlSnKd5e08-iuxen-305" value="" style="rounded=0;whiteSpace=wrap;html=1;fontSize=22;strokeColor=none;fillColor=#3399FF;" parent="K7jrmlSnKd5e08-iuxen-323" vertex="1">
          <mxGeometry x="-26.503076923076918" y="67.47857142857143" width="5.384615384615384" height="6.857142857142857" as="geometry" />
        </mxCell>
        <mxCell id="K7jrmlSnKd5e08-iuxen-306" value="" style="rounded=0;whiteSpace=wrap;html=1;fontSize=22;strokeColor=none;fillColor=#99CCFF;" parent="K7jrmlSnKd5e08-iuxen-323" vertex="1">
          <mxGeometry x="-26.503076923076918" y="74.33571428571429" width="5.384615384615384" height="6.857142857142857" as="geometry" />
        </mxCell>
        <mxCell id="K7jrmlSnKd5e08-iuxen-307" value="" style="rounded=0;whiteSpace=wrap;html=1;fontSize=22;strokeColor=none;fillColor=#3399FF;" parent="K7jrmlSnKd5e08-iuxen-323" vertex="1">
          <mxGeometry x="-26.503076923076918" y="81.19285714285714" width="5.384615384615384" height="6.857142857142857" as="geometry" />
        </mxCell>
        <mxCell id="K7jrmlSnKd5e08-iuxen-308" value="" style="rounded=0;whiteSpace=wrap;html=1;fontSize=22;strokeColor=none;fillColor=#97D077;" parent="K7jrmlSnKd5e08-iuxen-323" vertex="1">
          <mxGeometry x="-14.583846153846153" y="60.62142857142857" width="5.384615384615384" height="6.857142857142857" as="geometry" />
        </mxCell>
        <mxCell id="K7jrmlSnKd5e08-iuxen-309" value="" style="rounded=0;whiteSpace=wrap;html=1;fontSize=22;strokeColor=none;fillColor=#B9E0A5;" parent="K7jrmlSnKd5e08-iuxen-323" vertex="1">
          <mxGeometry x="-14.583846153846153" y="67.47857142857143" width="5.384615384615384" height="6.857142857142857" as="geometry" />
        </mxCell>
        <mxCell id="K7jrmlSnKd5e08-iuxen-310" value="" style="rounded=0;whiteSpace=wrap;html=1;fontSize=22;strokeColor=none;fillColor=#97D077;" parent="K7jrmlSnKd5e08-iuxen-323" vertex="1">
          <mxGeometry x="-14.583846153846153" y="74.33571428571429" width="5.384615384615384" height="10.285714285714285" as="geometry" />
        </mxCell>
        <mxCell id="K7jrmlSnKd5e08-iuxen-311" value="" style="rounded=0;whiteSpace=wrap;html=1;fontSize=22;strokeColor=none;fillColor=#B9E0A5;" parent="K7jrmlSnKd5e08-iuxen-323" vertex="1">
          <mxGeometry x="-14.583846153846153" y="81.19285714285714" width="5.384615384615384" height="6.857142857142857" as="geometry" />
        </mxCell>
        <mxCell id="K7jrmlSnKd5e08-iuxen-312" value="" style="ellipse;whiteSpace=wrap;html=1;aspect=fixed;fontSize=11;strokeColor=#000000;fillColor=none;" parent="K7jrmlSnKd5e08-iuxen-323" vertex="1">
          <mxGeometry x="-26.503076923076918" y="105.19285714285714" width="4.615384615384615" height="4.615384615384615" as="geometry" />
        </mxCell>
        <mxCell id="K7jrmlSnKd5e08-iuxen-313" value="" style="ellipse;whiteSpace=wrap;html=1;aspect=fixed;fontSize=11;strokeColor=#000000;fillColor=none;" parent="K7jrmlSnKd5e08-iuxen-323" vertex="1">
          <mxGeometry x="-14.583846153846153" y="105.19285714285714" width="4.615384615384615" height="4.615384615384615" as="geometry" />
        </mxCell>
        <mxCell id="K7jrmlSnKd5e08-iuxen-314" value="" style="endArrow=classic;html=1;rounded=0;fontSize=11;exitX=0.5;exitY=0;exitDx=0;exitDy=0;entryX=0.5;entryY=1;entryDx=0;entryDy=0;" parent="K7jrmlSnKd5e08-iuxen-323" source="K7jrmlSnKd5e08-iuxen-312" target="K7jrmlSnKd5e08-iuxen-307" edge="1">
          <mxGeometry width="50" height="50" relative="1" as="geometry">
            <mxPoint x="-357.656923076923" y="-169.09285714285716" as="sourcePoint" />
            <mxPoint x="-330.7338461538461" y="-203.37857142857138" as="targetPoint" />
          </mxGeometry>
        </mxCell>
        <mxCell id="K7jrmlSnKd5e08-iuxen-315" value="" style="endArrow=classic;html=1;rounded=0;fontSize=11;exitX=0.5;exitY=0;exitDx=0;exitDy=0;entryX=0.5;entryY=1;entryDx=0;entryDy=0;" parent="K7jrmlSnKd5e08-iuxen-323" source="K7jrmlSnKd5e08-iuxen-313" target="K7jrmlSnKd5e08-iuxen-311" edge="1">
          <mxGeometry width="50" height="50" relative="1" as="geometry">
            <mxPoint x="-326.9884615384616" y="-107.37857142857143" as="sourcePoint" />
            <mxPoint x="-326.9884615384616" y="-124.52142857142854" as="targetPoint" />
          </mxGeometry>
        </mxCell>
        <mxCell id="K7jrmlSnKd5e08-iuxen-316" value="&lt;font style=&quot;font-size: 9px;&quot; face=&quot;Georgia&quot;&gt;&lt;i&gt;Item &lt;sub&gt;s1&lt;/sub&gt;&lt;/i&gt;&lt;/font&gt;" style="text;html=1;strokeColor=none;fillColor=none;align=center;verticalAlign=middle;whiteSpace=wrap;rounded=0;fontSize=11;" parent="K7jrmlSnKd5e08-iuxen-323" vertex="1">
          <mxGeometry x="-51.89" y="105.19000000000001" width="60" height="20.57" as="geometry" />
        </mxCell>
        <mxCell id="K7jrmlSnKd5e08-iuxen-318" style="edgeStyle=orthogonalEdgeStyle;rounded=0;orthogonalLoop=1;jettySize=auto;html=1;exitX=0.5;exitY=0;exitDx=0;exitDy=0;fontFamily=Georgia;fontSize=11;" parent="K7jrmlSnKd5e08-iuxen-323" source="K7jrmlSnKd5e08-iuxen-319" edge="1">
          <mxGeometry relative="1" as="geometry">
            <Array as="points">
              <mxPoint x="-7.580000000000041" y="-10" />
            </Array>
            <mxPoint x="-44.58000000000004" y="-9.829999999999927" as="targetPoint" />
          </mxGeometry>
        </mxCell>
        <mxCell id="K7jrmlSnKd5e08-iuxen-319" value="&lt;font style=&quot;font-size: 10px;&quot;&gt;Activation&lt;br&gt;&lt;/font&gt;" style="rounded=1;whiteSpace=wrap;html=1;fontSize=11;strokeColor=#000000;fillColor=none;" parent="K7jrmlSnKd5e08-iuxen-323" vertex="1">
          <mxGeometry x="-36.500000000000114" width="57.92" height="10" as="geometry" />
        </mxCell>
        <mxCell id="K7jrmlSnKd5e08-iuxen-320" style="edgeStyle=none;rounded=0;orthogonalLoop=1;jettySize=auto;html=1;exitX=0.5;exitY=0;exitDx=0;exitDy=0;fontFamily=Georgia;fontSize=10;" parent="K7jrmlSnKd5e08-iuxen-323" source="K7jrmlSnKd5e08-iuxen-303" edge="1">
          <mxGeometry relative="1" as="geometry">
            <mxPoint x="-18.58000000000004" y="10.000000000000227" as="targetPoint" />
          </mxGeometry>
        </mxCell>
        <mxCell id="K7jrmlSnKd5e08-iuxen-322" style="edgeStyle=orthogonalEdgeStyle;rounded=0;orthogonalLoop=1;jettySize=auto;html=1;exitX=0;exitY=0.5;exitDx=0;exitDy=0;entryX=0.5;entryY=1;entryDx=0;entryDy=0;fontFamily=Georgia;fontSize=11;" parent="K7jrmlSnKd5e08-iuxen-323" source="K7jrmlSnKd5e08-iuxen-303" target="s96yfOAvuMhZukNOSEZi-1" edge="1">
          <mxGeometry relative="1" as="geometry">
            <Array as="points">
              <mxPoint x="-48.58000000000004" y="41.17000000000007" />
              <mxPoint x="-48.58000000000004" y="-0.8299999999999272" />
              <mxPoint x="-49.58000000000004" y="-0.8299999999999272" />
            </Array>
            <mxPoint x="-48.58000000000004" y="-5" as="targetPoint" />
          </mxGeometry>
        </mxCell>
        <mxCell id="K7jrmlSnKd5e08-iuxen-340" style="edgeStyle=orthogonalEdgeStyle;rounded=0;orthogonalLoop=1;jettySize=auto;html=1;exitX=0.5;exitY=0;exitDx=0;exitDy=0;entryX=1.025;entryY=0.593;entryDx=0;entryDy=0;fontFamily=Georgia;fontSize=11;entryPerimeter=0;" parent="1" source="K7jrmlSnKd5e08-iuxen-341" target="s96yfOAvuMhZukNOSEZi-5" edge="1">
          <mxGeometry relative="1" as="geometry">
            <Array as="points">
              <mxPoint x="752.31" y="651" />
            </Array>
            <mxPoint x="716.31" y="650.8299999999999" as="targetPoint" />
          </mxGeometry>
        </mxCell>
        <mxCell id="K7jrmlSnKd5e08-iuxen-341" value="&lt;font style=&quot;font-size: 10px;&quot;&gt;Activation&lt;br&gt;&lt;/font&gt;" style="rounded=1;whiteSpace=wrap;html=1;fontSize=11;strokeColor=#000000;fillColor=none;" parent="1" vertex="1">
          <mxGeometry x="723.3899999999999" y="660.8299999999999" width="57.92" height="10" as="geometry" />
        </mxCell>
        <mxCell id="K7jrmlSnKd5e08-iuxen-342" style="edgeStyle=none;rounded=0;orthogonalLoop=1;jettySize=auto;html=1;exitX=0.5;exitY=0;exitDx=0;exitDy=0;fontFamily=Georgia;fontSize=10;" parent="1" source="K7jrmlSnKd5e08-iuxen-326" edge="1">
          <mxGeometry relative="1" as="geometry">
            <mxPoint x="741.31" y="670.8300000000002" as="targetPoint" />
          </mxGeometry>
        </mxCell>
        <mxCell id="K7jrmlSnKd5e08-iuxen-345" value="" style="endArrow=classic;html=1;rounded=0;fontFamily=Georgia;fontSize=11;strokeColor=#FF8000;entryX=0.75;entryY=1;entryDx=0;entryDy=0;" parent="1" target="K7jrmlSnKd5e08-iuxen-341" edge="1">
          <mxGeometry width="50" height="50" relative="1" as="geometry">
            <mxPoint x="767.31" y="690.8300000000002" as="sourcePoint" />
            <mxPoint x="802.31" y="680.8299999999999" as="targetPoint" />
          </mxGeometry>
        </mxCell>
        <mxCell id="K7jrmlSnKd5e08-iuxen-348" value="" style="group" parent="1" vertex="1" connectable="0">
          <mxGeometry x="808.6923076923077" y="660.8299999999999" width="40" height="44.57142857142857" as="geometry" />
        </mxCell>
        <mxCell id="K7jrmlSnKd5e08-iuxen-349" value="" style="shape=curlyBracket;whiteSpace=wrap;html=1;rounded=1;flipH=1;fontSize=22;strokeColor=#000000;fillColor=#000000;rotation=-90;size=0.5;" parent="K7jrmlSnKd5e08-iuxen-348" vertex="1">
          <mxGeometry x="18.076923076923077" y="36.62142857142857" width="10.769230769230768" height="34.285714285714285" as="geometry" />
        </mxCell>
        <mxCell id="K7jrmlSnKd5e08-iuxen-350" value="&lt;font style=&quot;font-size: 11px;&quot;&gt;concat&lt;/font&gt;" style="rounded=1;whiteSpace=wrap;html=1;fontSize=11;strokeColor=#000000;fillColor=none;" parent="K7jrmlSnKd5e08-iuxen-348" vertex="1">
          <mxGeometry x="4.14" y="36.05" width="38.65" height="10.43" as="geometry" />
        </mxCell>
        <mxCell id="K7jrmlSnKd5e08-iuxen-351" value="" style="rounded=0;whiteSpace=wrap;html=1;fontSize=22;strokeColor=none;fillColor=#99CCFF;" parent="1" vertex="1">
          <mxGeometry x="824.0769230769231" y="721.4514285714286" width="5.384615384615384" height="6.857142857142857" as="geometry" />
        </mxCell>
        <mxCell id="K7jrmlSnKd5e08-iuxen-352" value="" style="rounded=0;whiteSpace=wrap;html=1;fontSize=22;strokeColor=none;fillColor=#3399FF;" parent="1" vertex="1">
          <mxGeometry x="824.0769230769231" y="728.3085714285714" width="5.384615384615384" height="6.857142857142857" as="geometry" />
        </mxCell>
        <mxCell id="K7jrmlSnKd5e08-iuxen-353" value="" style="rounded=0;whiteSpace=wrap;html=1;fontSize=22;strokeColor=none;fillColor=#99CCFF;" parent="1" vertex="1">
          <mxGeometry x="824.0769230769231" y="735.1657142857143" width="5.384615384615384" height="6.857142857142857" as="geometry" />
        </mxCell>
        <mxCell id="K7jrmlSnKd5e08-iuxen-354" value="" style="rounded=0;whiteSpace=wrap;html=1;fontSize=22;strokeColor=none;fillColor=#3399FF;" parent="1" vertex="1">
          <mxGeometry x="824.0769230769231" y="742.0228571428572" width="5.384615384615384" height="6.857142857142857" as="geometry" />
        </mxCell>
        <mxCell id="K7jrmlSnKd5e08-iuxen-355" value="" style="rounded=0;whiteSpace=wrap;html=1;fontSize=22;strokeColor=none;fillColor=#97D077;" parent="1" vertex="1">
          <mxGeometry x="835.9961538461539" y="721.4514285714286" width="5.384615384615384" height="6.857142857142857" as="geometry" />
        </mxCell>
        <mxCell id="K7jrmlSnKd5e08-iuxen-356" value="" style="rounded=0;whiteSpace=wrap;html=1;fontSize=22;strokeColor=none;fillColor=#B9E0A5;" parent="1" vertex="1">
          <mxGeometry x="835.9961538461539" y="728.3085714285714" width="5.384615384615384" height="6.857142857142857" as="geometry" />
        </mxCell>
        <mxCell id="K7jrmlSnKd5e08-iuxen-357" value="" style="rounded=0;whiteSpace=wrap;html=1;fontSize=22;strokeColor=none;fillColor=#97D077;" parent="1" vertex="1">
          <mxGeometry x="835.9961538461539" y="735.1657142857143" width="5.384615384615384" height="10.285714285714285" as="geometry" />
        </mxCell>
        <mxCell id="K7jrmlSnKd5e08-iuxen-358" value="" style="rounded=0;whiteSpace=wrap;html=1;fontSize=22;strokeColor=none;fillColor=#B9E0A5;" parent="1" vertex="1">
          <mxGeometry x="835.9961538461539" y="742.0228571428572" width="5.384615384615384" height="6.857142857142857" as="geometry" />
        </mxCell>
        <mxCell id="K7jrmlSnKd5e08-iuxen-359" value="" style="ellipse;whiteSpace=wrap;html=1;aspect=fixed;fontSize=11;strokeColor=#000000;fillColor=none;" parent="1" vertex="1">
          <mxGeometry x="824.0769230769231" y="766.0228571428572" width="4.615384615384615" height="4.615384615384615" as="geometry" />
        </mxCell>
        <mxCell id="K7jrmlSnKd5e08-iuxen-360" value="" style="ellipse;whiteSpace=wrap;html=1;aspect=fixed;fontSize=11;strokeColor=#000000;fillColor=none;" parent="1" vertex="1">
          <mxGeometry x="835.9961538461539" y="766.0228571428572" width="4.615384615384615" height="4.615384615384615" as="geometry" />
        </mxCell>
        <mxCell id="K7jrmlSnKd5e08-iuxen-361" value="" style="endArrow=classic;html=1;rounded=0;fontSize=11;exitX=0.5;exitY=0;exitDx=0;exitDy=0;entryX=0.5;entryY=1;entryDx=0;entryDy=0;" parent="1" source="K7jrmlSnKd5e08-iuxen-359" target="K7jrmlSnKd5e08-iuxen-354" edge="1">
          <mxGeometry width="50" height="50" relative="1" as="geometry">
            <mxPoint x="-321.0769230769231" y="-8.262857142857108" as="sourcePoint" />
            <mxPoint x="-294.1538461538462" y="-42.548571428571385" as="targetPoint" />
          </mxGeometry>
        </mxCell>
        <mxCell id="K7jrmlSnKd5e08-iuxen-362" value="" style="endArrow=classic;html=1;rounded=0;fontSize=11;exitX=0.5;exitY=0;exitDx=0;exitDy=0;entryX=0.5;entryY=1;entryDx=0;entryDy=0;" parent="1" source="K7jrmlSnKd5e08-iuxen-360" target="K7jrmlSnKd5e08-iuxen-358" edge="1">
          <mxGeometry width="50" height="50" relative="1" as="geometry">
            <mxPoint x="-290.40846153846167" y="53.45142857142861" as="sourcePoint" />
            <mxPoint x="-290.40846153846167" y="36.30857142857147" as="targetPoint" />
          </mxGeometry>
        </mxCell>
        <mxCell id="K7jrmlSnKd5e08-iuxen-363" value="&lt;font style=&quot;font-size: 9px;&quot; face=&quot;Georgia&quot;&gt;&lt;i&gt;Item &lt;sub&gt;sN&lt;/sub&gt;&lt;/i&gt;&lt;/font&gt;" style="text;html=1;strokeColor=none;fillColor=none;align=center;verticalAlign=middle;whiteSpace=wrap;rounded=0;fontSize=11;" parent="1" vertex="1">
          <mxGeometry x="800.69" y="766.02" width="60" height="20.57" as="geometry" />
        </mxCell>
        <mxCell id="K7jrmlSnKd5e08-iuxen-364" style="edgeStyle=orthogonalEdgeStyle;rounded=0;orthogonalLoop=1;jettySize=auto;html=1;exitX=0.5;exitY=0;exitDx=0;exitDy=0;entryX=1;entryY=0.5;entryDx=0;entryDy=0;fontFamily=Georgia;fontSize=11;" parent="1" source="K7jrmlSnKd5e08-iuxen-365" target="s96yfOAvuMhZukNOSEZi-38" edge="1">
          <mxGeometry relative="1" as="geometry">
            <Array as="points">
              <mxPoint x="843" y="650" />
            </Array>
            <mxPoint x="807.0000000000002" y="650.8299999999999" as="targetPoint" />
          </mxGeometry>
        </mxCell>
        <mxCell id="K7jrmlSnKd5e08-iuxen-365" value="&lt;font style=&quot;font-size: 10px;&quot;&gt;Activation&lt;br&gt;&lt;/font&gt;" style="rounded=1;whiteSpace=wrap;html=1;fontSize=11;strokeColor=#000000;fillColor=none;" parent="1" vertex="1">
          <mxGeometry x="814.0799999999999" y="660.8299999999999" width="57.92" height="10" as="geometry" />
        </mxCell>
        <mxCell id="K7jrmlSnKd5e08-iuxen-366" style="edgeStyle=none;rounded=0;orthogonalLoop=1;jettySize=auto;html=1;exitX=0.5;exitY=0;exitDx=0;exitDy=0;fontFamily=Georgia;fontSize=10;" parent="1" source="K7jrmlSnKd5e08-iuxen-350" edge="1">
          <mxGeometry relative="1" as="geometry">
            <mxPoint x="832" y="670.8300000000002" as="targetPoint" />
          </mxGeometry>
        </mxCell>
        <mxCell id="K7jrmlSnKd5e08-iuxen-368" style="edgeStyle=orthogonalEdgeStyle;rounded=0;orthogonalLoop=1;jettySize=auto;html=1;exitX=0;exitY=0.5;exitDx=0;exitDy=0;entryX=0.5;entryY=1;entryDx=0;entryDy=0;fontFamily=Georgia;fontSize=11;" parent="1" source="K7jrmlSnKd5e08-iuxen-350" target="s96yfOAvuMhZukNOSEZi-38" edge="1">
          <mxGeometry relative="1" as="geometry">
            <Array as="points">
              <mxPoint x="809" y="702" />
              <mxPoint x="809" y="655" />
            </Array>
            <mxPoint x="802.0000000000002" y="655.8299999999999" as="targetPoint" />
          </mxGeometry>
        </mxCell>
        <mxCell id="K7jrmlSnKd5e08-iuxen-369" value="" style="endArrow=classic;html=1;rounded=0;fontFamily=Georgia;fontSize=11;strokeColor=#FF8000;entryX=0.787;entryY=1;entryDx=0;entryDy=0;entryPerimeter=0;" parent="1" target="K7jrmlSnKd5e08-iuxen-365" edge="1">
          <mxGeometry width="50" height="50" relative="1" as="geometry">
            <mxPoint x="860" y="690" as="sourcePoint" />
            <mxPoint x="893" y="680.8299999999999" as="targetPoint" />
          </mxGeometry>
        </mxCell>
        <mxCell id="K7jrmlSnKd5e08-iuxen-347" value="" style="endArrow=classic;html=1;rounded=0;fontFamily=Georgia;fontSize=11;strokeColor=#000000;exitX=0.5;exitY=0;exitDx=0;exitDy=0;entryX=0.547;entryY=0.143;entryDx=0;entryDy=0;entryPerimeter=0;" parent="1" edge="1">
          <mxGeometry width="50" height="50" relative="1" as="geometry">
            <mxPoint x="717.2599999999999" y="645.0000000000001" as="sourcePoint" />
            <mxPoint x="717.0000000000001" y="630.9399999999999" as="targetPoint" />
          </mxGeometry>
        </mxCell>
        <mxCell id="s96yfOAvuMhZukNOSEZi-39" style="edgeStyle=orthogonalEdgeStyle;rounded=0;orthogonalLoop=1;jettySize=auto;html=1;exitX=0;exitY=0.5;exitDx=0;exitDy=0;entryX=0.5;entryY=1;entryDx=0;entryDy=0;" parent="1" source="K7jrmlSnKd5e08-iuxen-326" target="s96yfOAvuMhZukNOSEZi-5" edge="1">
          <mxGeometry relative="1" as="geometry">
            <Array as="points">
              <mxPoint x="718" y="702" />
              <mxPoint x="718" y="676" />
              <mxPoint x="718" y="676" />
            </Array>
          </mxGeometry>
        </mxCell>
        <mxCell id="cysShiUN6PF5TXXtmTjT-4" style="edgeStyle=orthogonalEdgeStyle;rounded=0;orthogonalLoop=1;jettySize=auto;html=1;strokeColor=#FF8000;entryX=0.621;entryY=1.098;entryDx=0;entryDy=0;entryPerimeter=0;" edge="1" parent="1" target="K7jrmlSnKd5e08-iuxen-319">
          <mxGeometry relative="1" as="geometry">
            <mxPoint x="930" y="580" as="sourcePoint" />
            <Array as="points">
              <mxPoint x="890" y="580" />
              <mxPoint x="890" y="690" />
              <mxPoint x="810" y="690" />
              <mxPoint x="810" y="691" />
              <mxPoint x="684" y="691" />
            </Array>
          </mxGeometry>
        </mxCell>
        <mxCell id="cysShiUN6PF5TXXtmTjT-103" value="" style="group" vertex="1" connectable="0" parent="1">
          <mxGeometry x="451" y="578.53" width="40" height="35" as="geometry" />
        </mxCell>
        <mxCell id="cysShiUN6PF5TXXtmTjT-104" value="" style="group" vertex="1" connectable="0" parent="cysShiUN6PF5TXXtmTjT-103">
          <mxGeometry x="52.5" y="15" width="40" height="10" as="geometry" />
        </mxCell>
        <mxCell id="cysShiUN6PF5TXXtmTjT-105" value="" style="rounded=0;whiteSpace=wrap;html=1;fontSize=22;strokeColor=none;fillColor=#EA6B66;" vertex="1" parent="cysShiUN6PF5TXXtmTjT-104">
          <mxGeometry width="10" height="10" as="geometry" />
        </mxCell>
        <mxCell id="cysShiUN6PF5TXXtmTjT-106" style="edgeStyle=none;rounded=0;orthogonalLoop=1;jettySize=auto;html=1;exitX=1;exitY=1;exitDx=0;exitDy=0;fontSize=22;strokeColor=none;" edge="1" parent="cysShiUN6PF5TXXtmTjT-104" source="cysShiUN6PF5TXXtmTjT-105" target="cysShiUN6PF5TXXtmTjT-105">
          <mxGeometry relative="1" as="geometry" />
        </mxCell>
        <mxCell id="cysShiUN6PF5TXXtmTjT-107" value="" style="rounded=0;whiteSpace=wrap;html=1;fontSize=22;strokeColor=none;fillColor=#FFB570;" vertex="1" parent="cysShiUN6PF5TXXtmTjT-104">
          <mxGeometry x="10" width="10" height="10" as="geometry" />
        </mxCell>
        <mxCell id="cysShiUN6PF5TXXtmTjT-108" value="" style="rounded=0;whiteSpace=wrap;html=1;fontSize=22;strokeColor=none;fillColor=#EA6B66;" vertex="1" parent="cysShiUN6PF5TXXtmTjT-104">
          <mxGeometry x="20" width="10" height="10" as="geometry" />
        </mxCell>
        <mxCell id="cysShiUN6PF5TXXtmTjT-109" value="" style="rounded=0;whiteSpace=wrap;html=1;fontSize=22;strokeColor=none;fillColor=#FFB570;" vertex="1" parent="cysShiUN6PF5TXXtmTjT-104">
          <mxGeometry x="30" width="10" height="10" as="geometry" />
        </mxCell>
        <mxCell id="cysShiUN6PF5TXXtmTjT-110" value="&lt;font style=&quot;font-size: 11px;&quot;&gt;concat&lt;/font&gt;" style="rounded=1;whiteSpace=wrap;html=1;fontSize=11;strokeColor=#000000;fillColor=none;" vertex="1" parent="1">
          <mxGeometry x="500.5" y="614.56" width="45" height="20" as="geometry" />
        </mxCell>
        <mxCell id="cysShiUN6PF5TXXtmTjT-111" value="" style="shape=curlyBracket;whiteSpace=wrap;html=1;rounded=1;flipH=1;fontSize=22;strokeColor=#000000;fillColor=#000000;rotation=-90;size=0.5;" vertex="1" parent="1">
          <mxGeometry x="513" y="573.53" width="20" height="150" as="geometry" />
        </mxCell>
        <mxCell id="cysShiUN6PF5TXXtmTjT-112" value="" style="endArrow=classic;html=1;rounded=0;fontSize=11;exitX=0.5;exitY=0;exitDx=0;exitDy=0;entryX=0.155;entryY=1;entryDx=0;entryDy=0;entryPerimeter=0;" edge="1" parent="1">
          <mxGeometry width="50" height="50" relative="1" as="geometry">
            <mxPoint x="523.29" y="593.53" as="sourcePoint" />
            <mxPoint x="523" y="558.53" as="targetPoint" />
          </mxGeometry>
        </mxCell>
        <mxCell id="cysShiUN6PF5TXXtmTjT-135" value="" style="group" vertex="1" connectable="0" parent="1">
          <mxGeometry x="484" y="663.53" width="95" height="110" as="geometry" />
        </mxCell>
        <mxCell id="cysShiUN6PF5TXXtmTjT-136" value="" style="group" vertex="1" connectable="0" parent="cysShiUN6PF5TXXtmTjT-135">
          <mxGeometry x="15" width="80" height="105" as="geometry" />
        </mxCell>
        <mxCell id="cysShiUN6PF5TXXtmTjT-137" value="" style="rounded=0;whiteSpace=wrap;html=1;fontSize=22;strokeColor=none;fillColor=#EA6B66;" vertex="1" parent="cysShiUN6PF5TXXtmTjT-136">
          <mxGeometry width="10" height="10" as="geometry" />
        </mxCell>
        <mxCell id="cysShiUN6PF5TXXtmTjT-138" value="" style="rounded=0;whiteSpace=wrap;html=1;fontSize=22;strokeColor=none;fillColor=#F8CECC;" vertex="1" parent="cysShiUN6PF5TXXtmTjT-136">
          <mxGeometry y="10" width="10" height="10" as="geometry" />
        </mxCell>
        <mxCell id="cysShiUN6PF5TXXtmTjT-139" value="" style="rounded=0;whiteSpace=wrap;html=1;fontSize=22;strokeColor=none;fillColor=#EA6B66;" vertex="1" parent="cysShiUN6PF5TXXtmTjT-136">
          <mxGeometry y="20" width="10" height="10" as="geometry" />
        </mxCell>
        <mxCell id="cysShiUN6PF5TXXtmTjT-140" value="" style="rounded=0;whiteSpace=wrap;html=1;fontSize=22;strokeColor=none;fillColor=#F8CECC;" vertex="1" parent="cysShiUN6PF5TXXtmTjT-136">
          <mxGeometry y="30" width="10" height="10" as="geometry" />
        </mxCell>
        <mxCell id="cysShiUN6PF5TXXtmTjT-141" value="" style="rounded=0;whiteSpace=wrap;html=1;fontSize=22;strokeColor=none;fillColor=#FF8000;" vertex="1" parent="cysShiUN6PF5TXXtmTjT-136">
          <mxGeometry x="20" width="10" height="10" as="geometry" />
        </mxCell>
        <mxCell id="cysShiUN6PF5TXXtmTjT-142" value="" style="rounded=0;whiteSpace=wrap;html=1;fontSize=22;strokeColor=none;fillColor=#FFB570;" vertex="1" parent="cysShiUN6PF5TXXtmTjT-136">
          <mxGeometry x="20" y="10" width="10" height="10" as="geometry" />
        </mxCell>
        <mxCell id="cysShiUN6PF5TXXtmTjT-143" value="" style="rounded=0;whiteSpace=wrap;html=1;fontSize=22;strokeColor=none;fillColor=#FF8000;" vertex="1" parent="cysShiUN6PF5TXXtmTjT-136">
          <mxGeometry x="20" y="20" width="10" height="15" as="geometry" />
        </mxCell>
        <mxCell id="cysShiUN6PF5TXXtmTjT-144" value="" style="rounded=0;whiteSpace=wrap;html=1;fontSize=22;strokeColor=none;fillColor=#FFB570;" vertex="1" parent="cysShiUN6PF5TXXtmTjT-136">
          <mxGeometry x="20" y="30" width="10" height="10" as="geometry" />
        </mxCell>
        <mxCell id="cysShiUN6PF5TXXtmTjT-145" value="" style="ellipse;whiteSpace=wrap;html=1;aspect=fixed;fontSize=11;strokeColor=#000000;fillColor=none;" vertex="1" parent="cysShiUN6PF5TXXtmTjT-136">
          <mxGeometry y="65" width="10" height="10" as="geometry" />
        </mxCell>
        <mxCell id="cysShiUN6PF5TXXtmTjT-146" value="" style="ellipse;whiteSpace=wrap;html=1;aspect=fixed;fontSize=11;strokeColor=#000000;fillColor=none;" vertex="1" parent="cysShiUN6PF5TXXtmTjT-136">
          <mxGeometry x="20" y="65" width="10" height="10" as="geometry" />
        </mxCell>
        <mxCell id="cysShiUN6PF5TXXtmTjT-147" value="" style="endArrow=classic;html=1;rounded=0;fontSize=11;exitX=0.5;exitY=0;exitDx=0;exitDy=0;entryX=0.5;entryY=1;entryDx=0;entryDy=0;" edge="1" parent="cysShiUN6PF5TXXtmTjT-136" source="cysShiUN6PF5TXXtmTjT-145" target="cysShiUN6PF5TXXtmTjT-140">
          <mxGeometry width="50" height="50" relative="1" as="geometry">
            <mxPoint x="-195" y="-335" as="sourcePoint" />
            <mxPoint x="-145" y="-385" as="targetPoint" />
          </mxGeometry>
        </mxCell>
        <mxCell id="cysShiUN6PF5TXXtmTjT-148" value="" style="endArrow=classic;html=1;rounded=0;fontSize=11;exitX=0.5;exitY=0;exitDx=0;exitDy=0;entryX=0.5;entryY=1;entryDx=0;entryDy=0;" edge="1" parent="cysShiUN6PF5TXXtmTjT-136" source="cysShiUN6PF5TXXtmTjT-146" target="cysShiUN6PF5TXXtmTjT-144">
          <mxGeometry width="50" height="50" relative="1" as="geometry">
            <mxPoint x="-140.18" y="-245" as="sourcePoint" />
            <mxPoint x="-140.18" y="-270" as="targetPoint" />
          </mxGeometry>
        </mxCell>
        <mxCell id="cysShiUN6PF5TXXtmTjT-156" value="&lt;i style=&quot;border-color: var(--border-color); font-family: Georgia; font-size: 9px;&quot;&gt;Item&amp;nbsp;&lt;sub style=&quot;border-color: var(--border-color);&quot;&gt;s2&lt;/sub&gt;&lt;/i&gt;" style="text;html=1;strokeColor=none;fillColor=none;align=center;verticalAlign=middle;whiteSpace=wrap;rounded=0;fontSize=11;" vertex="1" parent="cysShiUN6PF5TXXtmTjT-136">
          <mxGeometry x="-15" y="71.02" width="65" height="30" as="geometry" />
        </mxCell>
        <mxCell id="cysShiUN6PF5TXXtmTjT-179" value="&lt;font style=&quot;font-size: 22px;&quot;&gt;……&lt;/font&gt;" style="text;html=1;strokeColor=none;fillColor=none;align=center;verticalAlign=middle;whiteSpace=wrap;rounded=0;fontFamily=Georgia;fontSize=11;" vertex="1" parent="cysShiUN6PF5TXXtmTjT-136">
          <mxGeometry x="20" y="37.5" width="60" height="30" as="geometry" />
        </mxCell>
        <mxCell id="cysShiUN6PF5TXXtmTjT-114" value="" style="group" vertex="1" connectable="0" parent="cysShiUN6PF5TXXtmTjT-135">
          <mxGeometry x="-34" width="59" height="105" as="geometry" />
        </mxCell>
        <mxCell id="cysShiUN6PF5TXXtmTjT-115" value="" style="rounded=0;whiteSpace=wrap;html=1;fontSize=22;strokeColor=none;fillColor=#EA6B66;movable=0;resizable=0;rotatable=0;deletable=0;editable=0;connectable=0;" vertex="1" parent="cysShiUN6PF5TXXtmTjT-114">
          <mxGeometry width="10" height="10" as="geometry" />
        </mxCell>
        <mxCell id="cysShiUN6PF5TXXtmTjT-116" value="" style="rounded=0;whiteSpace=wrap;html=1;fontSize=22;strokeColor=none;fillColor=#F8CECC;movable=0;resizable=0;rotatable=0;deletable=0;editable=0;connectable=0;" vertex="1" parent="cysShiUN6PF5TXXtmTjT-114">
          <mxGeometry y="10" width="10" height="10" as="geometry" />
        </mxCell>
        <mxCell id="cysShiUN6PF5TXXtmTjT-117" value="" style="rounded=0;whiteSpace=wrap;html=1;fontSize=22;strokeColor=none;fillColor=#EA6B66;movable=0;resizable=0;rotatable=0;deletable=0;editable=0;connectable=0;" vertex="1" parent="cysShiUN6PF5TXXtmTjT-114">
          <mxGeometry y="20" width="10" height="10" as="geometry" />
        </mxCell>
        <mxCell id="cysShiUN6PF5TXXtmTjT-118" value="" style="rounded=0;whiteSpace=wrap;html=1;fontSize=22;strokeColor=none;fillColor=#F8CECC;movable=0;resizable=0;rotatable=0;deletable=0;editable=0;connectable=0;" vertex="1" parent="cysShiUN6PF5TXXtmTjT-114">
          <mxGeometry y="30" width="10" height="10" as="geometry" />
        </mxCell>
        <mxCell id="cysShiUN6PF5TXXtmTjT-119" value="" style="rounded=0;whiteSpace=wrap;html=1;fontSize=22;strokeColor=none;fillColor=#FF8000;movable=0;resizable=0;rotatable=0;deletable=0;editable=0;connectable=0;" vertex="1" parent="cysShiUN6PF5TXXtmTjT-114">
          <mxGeometry x="20" width="10" height="10" as="geometry" />
        </mxCell>
        <mxCell id="cysShiUN6PF5TXXtmTjT-120" value="" style="rounded=0;whiteSpace=wrap;html=1;fontSize=22;strokeColor=none;fillColor=#FFB570;movable=0;resizable=0;rotatable=0;deletable=0;editable=0;connectable=0;" vertex="1" parent="cysShiUN6PF5TXXtmTjT-114">
          <mxGeometry x="20" y="10" width="10" height="10" as="geometry" />
        </mxCell>
        <mxCell id="cysShiUN6PF5TXXtmTjT-121" value="" style="rounded=0;whiteSpace=wrap;html=1;fontSize=22;strokeColor=none;fillColor=#FF8000;movable=0;resizable=0;rotatable=0;deletable=0;editable=0;connectable=0;" vertex="1" parent="cysShiUN6PF5TXXtmTjT-114">
          <mxGeometry x="20" y="20" width="10" height="15" as="geometry" />
        </mxCell>
        <mxCell id="cysShiUN6PF5TXXtmTjT-122" value="" style="rounded=0;whiteSpace=wrap;html=1;fontSize=22;strokeColor=none;fillColor=#FFB570;movable=0;resizable=0;rotatable=0;deletable=0;editable=0;connectable=0;" vertex="1" parent="cysShiUN6PF5TXXtmTjT-114">
          <mxGeometry x="20" y="30" width="10" height="10" as="geometry" />
        </mxCell>
        <mxCell id="cysShiUN6PF5TXXtmTjT-123" value="" style="ellipse;whiteSpace=wrap;html=1;aspect=fixed;fontSize=11;strokeColor=#000000;fillColor=none;movable=0;resizable=0;rotatable=0;deletable=0;editable=0;connectable=0;" vertex="1" parent="cysShiUN6PF5TXXtmTjT-114">
          <mxGeometry y="65" width="10" height="10" as="geometry" />
        </mxCell>
        <mxCell id="cysShiUN6PF5TXXtmTjT-124" value="" style="ellipse;whiteSpace=wrap;html=1;aspect=fixed;fontSize=11;strokeColor=#000000;fillColor=none;movable=0;resizable=0;rotatable=0;deletable=0;editable=0;connectable=0;" vertex="1" parent="cysShiUN6PF5TXXtmTjT-114">
          <mxGeometry x="20" y="65" width="10" height="10" as="geometry" />
        </mxCell>
        <mxCell id="cysShiUN6PF5TXXtmTjT-125" value="" style="endArrow=classic;html=1;rounded=0;fontSize=11;exitX=0.5;exitY=0;exitDx=0;exitDy=0;entryX=0.5;entryY=1;entryDx=0;entryDy=0;movable=0;resizable=0;rotatable=0;deletable=0;editable=0;connectable=0;" edge="1" parent="cysShiUN6PF5TXXtmTjT-114" source="cysShiUN6PF5TXXtmTjT-123" target="cysShiUN6PF5TXXtmTjT-118">
          <mxGeometry width="50" height="50" relative="1" as="geometry">
            <mxPoint x="-195" y="-335" as="sourcePoint" />
            <mxPoint x="-145" y="-385" as="targetPoint" />
          </mxGeometry>
        </mxCell>
        <mxCell id="cysShiUN6PF5TXXtmTjT-126" value="" style="endArrow=classic;html=1;rounded=0;fontSize=11;exitX=0.5;exitY=0;exitDx=0;exitDy=0;entryX=0.5;entryY=1;entryDx=0;entryDy=0;movable=0;resizable=0;rotatable=0;deletable=0;editable=0;connectable=0;" edge="1" parent="cysShiUN6PF5TXXtmTjT-114" source="cysShiUN6PF5TXXtmTjT-124" target="cysShiUN6PF5TXXtmTjT-122">
          <mxGeometry width="50" height="50" relative="1" as="geometry">
            <mxPoint x="-140.18" y="-245" as="sourcePoint" />
            <mxPoint x="-140.18" y="-270" as="targetPoint" />
          </mxGeometry>
        </mxCell>
        <mxCell id="cysShiUN6PF5TXXtmTjT-183" value="&lt;font style=&quot;font-size: 9px;&quot; face=&quot;Georgia&quot;&gt;&lt;i&gt;Item &lt;sub&gt;s1&lt;/sub&gt;&lt;/i&gt;&lt;/font&gt;" style="text;html=1;strokeColor=none;fillColor=none;align=center;verticalAlign=middle;whiteSpace=wrap;rounded=0;fontSize=11;movable=0;resizable=0;rotatable=0;deletable=0;editable=0;connectable=0;" vertex="1" parent="cysShiUN6PF5TXXtmTjT-114">
          <mxGeometry x="-15" y="75" width="60" height="20.57" as="geometry" />
        </mxCell>
        <mxCell id="cysShiUN6PF5TXXtmTjT-180" value="&lt;font color=&quot;#ff8000&quot; face=&quot;Helvetica&quot; style=&quot;font-size: 12px;&quot;&gt;用户实时点击长序列 Mean-Pooling&lt;/font&gt;" style="text;html=1;strokeColor=none;fillColor=none;align=center;verticalAlign=middle;whiteSpace=wrap;rounded=0;dashed=1;fontFamily=Georgia;fontSize=22;" vertex="1" parent="1">
          <mxGeometry x="395" y="790" width="256" height="30" as="geometry" />
        </mxCell>
        <mxCell id="cysShiUN6PF5TXXtmTjT-158" value="" style="group" vertex="1" connectable="0" parent="1">
          <mxGeometry x="563.5" y="663.53" width="59" height="105" as="geometry" />
        </mxCell>
        <mxCell id="cysShiUN6PF5TXXtmTjT-159" value="" style="rounded=0;whiteSpace=wrap;html=1;fontSize=22;strokeColor=none;fillColor=#EA6B66;" vertex="1" parent="cysShiUN6PF5TXXtmTjT-158">
          <mxGeometry width="10" height="10" as="geometry" />
        </mxCell>
        <mxCell id="cysShiUN6PF5TXXtmTjT-160" value="" style="rounded=0;whiteSpace=wrap;html=1;fontSize=22;strokeColor=none;fillColor=#F8CECC;" vertex="1" parent="cysShiUN6PF5TXXtmTjT-158">
          <mxGeometry y="10" width="10" height="10" as="geometry" />
        </mxCell>
        <mxCell id="cysShiUN6PF5TXXtmTjT-161" value="" style="rounded=0;whiteSpace=wrap;html=1;fontSize=22;strokeColor=none;fillColor=#EA6B66;" vertex="1" parent="cysShiUN6PF5TXXtmTjT-158">
          <mxGeometry y="20" width="10" height="10" as="geometry" />
        </mxCell>
        <mxCell id="cysShiUN6PF5TXXtmTjT-162" value="" style="rounded=0;whiteSpace=wrap;html=1;fontSize=22;strokeColor=none;fillColor=#F8CECC;" vertex="1" parent="cysShiUN6PF5TXXtmTjT-158">
          <mxGeometry y="30" width="10" height="10" as="geometry" />
        </mxCell>
        <mxCell id="cysShiUN6PF5TXXtmTjT-163" value="" style="rounded=0;whiteSpace=wrap;html=1;fontSize=22;strokeColor=none;fillColor=#FF8000;" vertex="1" parent="cysShiUN6PF5TXXtmTjT-158">
          <mxGeometry x="20" width="10" height="10" as="geometry" />
        </mxCell>
        <mxCell id="cysShiUN6PF5TXXtmTjT-164" value="" style="rounded=0;whiteSpace=wrap;html=1;fontSize=22;strokeColor=none;fillColor=#FFB570;" vertex="1" parent="cysShiUN6PF5TXXtmTjT-158">
          <mxGeometry x="20" y="10" width="10" height="10" as="geometry" />
        </mxCell>
        <mxCell id="cysShiUN6PF5TXXtmTjT-165" value="" style="rounded=0;whiteSpace=wrap;html=1;fontSize=22;strokeColor=none;fillColor=#FF8000;" vertex="1" parent="cysShiUN6PF5TXXtmTjT-158">
          <mxGeometry x="20" y="20" width="10" height="15" as="geometry" />
        </mxCell>
        <mxCell id="cysShiUN6PF5TXXtmTjT-166" value="" style="rounded=0;whiteSpace=wrap;html=1;fontSize=22;strokeColor=none;fillColor=#FFB570;" vertex="1" parent="cysShiUN6PF5TXXtmTjT-158">
          <mxGeometry x="20" y="30" width="10" height="10" as="geometry" />
        </mxCell>
        <mxCell id="cysShiUN6PF5TXXtmTjT-167" value="" style="ellipse;whiteSpace=wrap;html=1;aspect=fixed;fontSize=11;strokeColor=#000000;fillColor=none;" vertex="1" parent="cysShiUN6PF5TXXtmTjT-158">
          <mxGeometry y="65" width="10" height="10" as="geometry" />
        </mxCell>
        <mxCell id="cysShiUN6PF5TXXtmTjT-168" value="" style="ellipse;whiteSpace=wrap;html=1;aspect=fixed;fontSize=11;strokeColor=#000000;fillColor=none;" vertex="1" parent="cysShiUN6PF5TXXtmTjT-158">
          <mxGeometry x="20" y="65" width="10" height="10" as="geometry" />
        </mxCell>
        <mxCell id="cysShiUN6PF5TXXtmTjT-169" value="" style="endArrow=classic;html=1;rounded=0;fontSize=11;exitX=0.5;exitY=0;exitDx=0;exitDy=0;entryX=0.5;entryY=1;entryDx=0;entryDy=0;" edge="1" parent="cysShiUN6PF5TXXtmTjT-158" source="cysShiUN6PF5TXXtmTjT-167" target="cysShiUN6PF5TXXtmTjT-162">
          <mxGeometry width="50" height="50" relative="1" as="geometry">
            <mxPoint x="-195" y="-335" as="sourcePoint" />
            <mxPoint x="-145" y="-385" as="targetPoint" />
          </mxGeometry>
        </mxCell>
        <mxCell id="cysShiUN6PF5TXXtmTjT-170" value="" style="endArrow=classic;html=1;rounded=0;fontSize=11;exitX=0.5;exitY=0;exitDx=0;exitDy=0;entryX=0.5;entryY=1;entryDx=0;entryDy=0;" edge="1" parent="cysShiUN6PF5TXXtmTjT-158" source="cysShiUN6PF5TXXtmTjT-168" target="cysShiUN6PF5TXXtmTjT-166">
          <mxGeometry width="50" height="50" relative="1" as="geometry">
            <mxPoint x="-140.18" y="-245" as="sourcePoint" />
            <mxPoint x="-140.18" y="-270" as="targetPoint" />
          </mxGeometry>
        </mxCell>
        <mxCell id="cysShiUN6PF5TXXtmTjT-185" value="&lt;i style=&quot;border-color: var(--border-color); font-family: Georgia; font-size: 9px;&quot;&gt;Item&amp;nbsp;&lt;sub style=&quot;border-color: var(--border-color);&quot;&gt;sN&lt;/sub&gt;&lt;/i&gt;" style="text;html=1;strokeColor=none;fillColor=none;align=center;verticalAlign=middle;whiteSpace=wrap;rounded=0;fontSize=11;" vertex="1" parent="cysShiUN6PF5TXXtmTjT-158">
          <mxGeometry x="-15" y="75" width="65" height="30" as="geometry" />
        </mxCell>
        <mxCell id="cysShiUN6PF5TXXtmTjT-187" value="" style="rounded=0;whiteSpace=wrap;html=1;fontFamily=Georgia;fontSize=22;strokeColor=#000000;fillColor=none;dashed=1;" vertex="1" parent="1">
          <mxGeometry x="442.08000000000004" y="578.1199999999999" width="161.92" height="210" as="geometry" />
        </mxCell>
      </root>
    </mxGraphModel>
  </diagram>
</mxfile>
